<?xml version="1.0" encoding="UTF-8" standalone="no"?>
<svg
   xmlns:dc="http://purl.org/dc/elements/1.1/"
   xmlns:cc="http://creativecommons.org/ns#"
   xmlns:rdf="http://www.w3.org/1999/02/22-rdf-syntax-ns#"
   xmlns:svg="http://www.w3.org/2000/svg"
   xmlns="http://www.w3.org/2000/svg"
   xmlns:sodipodi="http://sodipodi.sourceforge.net/DTD/sodipodi-0.dtd"
   xmlns:inkscape="http://www.inkscape.org/namespaces/inkscape"
   sodipodi:docname="assemblage_picto.svg"
   inkscape:version="1.0 (4035a4fb49, 2020-05-01)"
   id="svg5079"
   version="1.1"
   viewBox="0 0 597.38464 247.71852"
   height="247.71852mm"
   width="597.38464mm">
  <defs
     id="defs5073" />
  <sodipodi:namedview
     inkscape:window-maximized="1"
     inkscape:window-y="-8"
     inkscape:window-x="-8"
     inkscape:window-height="1017"
     inkscape:window-width="1920"
     showgrid="false"
     inkscape:document-rotation="0"
     inkscape:current-layer="layer1"
     inkscape:document-units="mm"
     inkscape:cy="879.40346"
     inkscape:cx="1044.5854"
     inkscape:zoom="0.35"
     inkscape:pageshadow="2"
     inkscape:pageopacity="0.0"
     borderopacity="1.0"
     bordercolor="#666666"
     pagecolor="#ffffff"
     id="base" />
  <metadata
     id="metadata5076">
    <rdf:RDF>
      <cc:Work
         rdf:about="">
        <dc:format>image/svg+xml</dc:format>
        <dc:type
           rdf:resource="http://purl.org/dc/dcmitype/StillImage" />
        <dc:title></dc:title>
      </cc:Work>
    </rdf:RDF>
  </metadata>
  <g
     transform="translate(170.54656,84.508831)"
     id="layer1"
     inkscape:groupmode="layer"
     inkscape:label="Calque 1">
    <path
       style="fill:#000000;stroke-width:0.045141"
       d="m -161.98497,3.6624968 -0.0128,-31.7455338 -0.13925,-0.406262 c -0.48434,-1.414023 -1.55615,-2.70231 -3.79038,-4.555923 -0.59433,-0.493047 -1.32707,-1.148279 -1.62837,-1.456056 -1.55606,-1.589566 -2.47854,-3.366522 -2.84298,-5.476477 -0.24769,-1.433971 -0.17759,-5.033511 0.16153,-8.283387 0.71871,-6.890299 2.52932,-13.401531 5.54609,-19.944338 l 0.39173,-0.849612 0.0128,11.649635 0.0128,11.649636 h 1.85068 1.85072 v -11.668982 -11.669 h 2.07649 2.07647 v 11.669 11.668982 h 1.89586 1.89586 l 0.0128,-11.635144 0.0128,-11.635124 0.43701,0.94795 c 2.75722,5.980822 4.50146,11.99782 5.3184,18.346468 0.47984,3.728814 0.63157,8.022371 0.3427,9.695894 -0.37277,2.159454 -1.29283,3.953182 -2.83271,5.522617 -0.28151,0.286879 -0.99603,0.924406 -1.58786,1.416707 -2.2968,1.910465 -3.36361,3.189444 -3.86178,4.629713 l -0.11718,0.338567 -0.0128,31.7681118 -0.0128,31.7681122 h -3.52048 -3.52047 z m 124.23983,6.5793472 v -25.166225 h -0.586825 -0.586843 v -27.079901 -27.079884 l 0.485273,0.103308 c 2.298092,0.488778 4.091566,1.526398 5.748408,3.325675 1.378213,1.496703 2.429301,3.154329 3.310962,5.221484 2.169564,5.086844 3.034087,12.120398 2.575389,20.952593 -0.236504,4.553696 -0.715334,11.0671 -1.512563,20.575095 -0.17339,2.067995 -0.315279,3.80987 -0.315279,3.87085 v 0.110786 h -1.038258 -1.038242 v 25.166219 25.166207 h -3.521 -3.521022 z M -98.279495,34.024435 C -112.64486,33.396581 -124.77943,27.485406 -134.59079,16.3359 c -8.48752,-9.6451012 -12.64903,-21.3878188 -12.30208,-34.713588 0.29406,-11.295226 3.80212,-21.111472 10.63116,-29.748027 2.53886,-3.210854 5.82705,-6.502416 9.09186,-9.101186 7.27463,-5.790532 15.70208,-9.28038 24.94051,-10.327965 2.287625,-0.259374 3.650125,-0.331193 6.297205,-0.33185 2.69769,-7.12e-4 4.12617,0.07666 6.48323,0.351908 9.25461,1.080036 17.55966,4.532341 24.8239,10.319004 3.22485,2.56891 6.47809,5.829717 9.02395,9.044935 5.805019,7.331293 9.233979,15.611158 10.29206,24.852187 0.268937,2.348649 0.35063,3.841829 0.35063,6.408092 0,2.560661 -0.08176,4.059918 -0.348276,6.387486 -1.442167,12.5943018 -7.258104,23.42225 -17.333874,32.271802 -7.69501,6.758522 -16.70424,10.775093 -26.7913,11.944325 -2.18765,0.253588 -3.42,0.321684 -6.07149,0.335629 -1.31586,0.0055 -2.56515,0.0055 -2.77619,-0.0036 z m 5.14609,-13.855375 c 9.06036,-0.592136 16.85667,-4.162966 23.44191,-10.7366922 6.20855,-6.197669 9.78626,-13.502479 10.70229,-21.8514088 0.18773,-1.711012 0.22838,-2.538192 0.22515,-4.581821 -0.004,-2.562285 -0.12904,-4.172694 -0.49537,-6.387487 -1.10754,-6.694368 -3.91566,-12.563875 -8.53402,-17.837741 -0.85678,-0.978376 -2.75679,-2.878036 -3.73987,-3.739218 -5.76123,-5.046672 -12.25129,-7.934947 -19.77187,-8.799104 -1.78398,-0.205002 -3.08534,-0.265579 -5.12351,-0.238658 -1.8419,0.02428 -2.81647,0.08286 -4.288415,0.257348 -6.70827,0.795293 -12.68934,3.292821 -18.01831,7.523901 -2.73907,2.174767 -5.55489,5.115152 -7.55744,7.891727 -3.57858,4.961783 -5.72036,10.463319 -6.45495,16.580737 -0.20378,1.696794 -0.25889,2.69552 -0.26213,4.748495 -0.004,2.564109 0.12338,4.25468 0.49126,6.522877 1.26458,7.7946098 4.96436,14.6675148 11.03665,20.50227 7.76081,7.457267 17.29036,10.867483 28.348625,10.144775 z m -5.30408,-3.701913 c -8.515025,-0.624204 -15.543425,-3.965393 -21.642755,-10.2887062 -5.11719,-5.30505904 -8.14063,-11.6303437 -8.98657,-18.8006218 -0.31787,-2.694462 -0.3169,-5.905335 0.002,-8.5935 0.78514,-6.605611 3.41512,-12.440639 7.91734,-17.565811 0.81337,-0.92592 2.41799,-2.530544 3.34382,-3.343834 5.61289,-4.930536 11.95031,-7.573895 19.433285,-8.105636 1.05963,-0.0752 3.83352,-0.07501 4.89782,3.47e-4 7.53079,0.53395 13.8917,3.177728 19.501,8.105289 0.92589,0.813326 2.53049,2.417932 3.34384,3.343816 4.50283,5.125883 7.1224,10.941182 7.91691,17.575101 0.31628,2.640802 0.31679,5.905371 0.002,8.584228 -0.77675,6.5968509 -3.4016,12.48621476 -7.80593,17.5141048 -5.81322,6.6362912 -12.97568,10.4868452 -21.24184,11.4197752 -2.03073,0.229185 -4.79686,0.29354 -6.68087,0.155503 z"
       id="path5071" />
    <path
       style="fill:#000000;stroke-width:0.249514"
       d="m 69.738839,40.083467 c -3.282566,-1.708131 -4.633594,-5.66293 -2.903046,-8.497945 0.499616,-0.81847 3.476513,-4.408677 4.034363,-4.865527 0.08384,-0.06865 0.930193,-1.023007 1.880906,-2.120874 0.950723,-1.097867 2.173402,-2.494575 2.717088,-3.103802 0.543675,-0.609237 1.593739,-1.788196 2.333484,-2.619907 0.739735,-0.83172 1.753642,-1.961339 2.253117,-2.510267 2.882291,-3.167675 3.614812,-4.149406 3.259783,-4.368825 -0.19573,-0.120964 -0.864425,-0.660227 -1.485997,-1.198357 -1.154506,-0.9995074 -7.712226,-6.5832493 -9.73839,-8.2920027 -0.617545,-0.520807 -1.530621,-1.2927659 -2.029059,-1.71545828 -1.165276,-0.9882375 -1.2576,-0.97417667 -1.917026,0.29188238 -0.683294,1.3119003 -3.173644,5.4433123 -3.528145,5.8530567 -0.14339,0.1657499 -0.260714,0.353369 -0.260714,0.4169304 0,0.2732572 -3.45935,5.8900535 -4.398342,7.1414195 -1.52535,2.032756 -2.075957,2.44963 -4.109213,3.111139 -4.081638,1.327933 -5.11236,1.676558 -5.590013,1.890715 -0.584179,0.261912 -7.996168,2.785477 -10.35485,3.525523 -0.892009,0.279868 -1.734122,0.589348 -1.871354,0.687717 -0.137232,0.09837 -0.979345,0.389497 -1.871363,0.646949 -0.892009,0.257452 -2.127108,0.741055 -2.744662,1.074677 -2.618237,1.414476 -6.547158,0.911455 -8.107155,-1.037964 -0.348352,-0.43532 -0.753306,-0.937106 -0.899893,-1.115087 -0.935135,-1.135381 -0.977355,-4.240645 -0.08054,-5.927247 1.100479,-2.069714 1.138456,-2.089565 8.5886,-4.488883 3.839558,-1.236523 5.144301,-1.676058 6.237858,-2.101382 0.617554,-0.240184 1.684225,-0.582425 2.370386,-0.7605384 0.68617,-0.178104 1.359854,-0.399484 1.497086,-0.491941 0.137232,-0.09251 1.750304,-0.6612923 3.584606,-1.2640595 3.335094,-1.0959522 3.335094,-1.0959522 4.116992,-2.4245447 0.430039,-0.7307197 1.141351,-1.9129042 1.580688,-2.6270735 0.439337,-0.7141692 1.086003,-1.8037462 1.437024,-2.42130028 0.830089,-1.46035502 2.351129,-4.03762622 3.253502,-5.51277752 0.137232,-0.2243414 0.507783,-0.8441777 0.82344,-1.377414 0.315656,-0.5332269 0.955646,-1.5870533 1.42219,-2.3418399 0.466544,-0.7547768 1.091473,-1.8144122 1.38873,-2.3547402 0.297249,-0.540328 0.695865,-1.137833 0.885813,-1.327781 0.189949,-0.189939 0.345354,-0.461405 0.345354,-0.603239 0,-0.141834 0.336846,-0.756993 0.748543,-1.367012 0.411706,-0.610019 0.748543,-1.20064 0.748543,-1.312485 0,-0.111855 0.207442,-0.471137 0.46099,-0.798421 0.253538,-0.327275 0.533972,-0.894263 0.623203,-1.259967 0.08921,-0.365695 0.79032,-1.99378 1.557988,-3.617961 1.823221,-3.857438 2.641578,-5.617258 3.461745,-7.444307 0.723713,-1.612167 1.330121,-2.926717 2.704894,-5.863582 0.481803,-1.02925 1.179723,-2.545047 1.550935,-3.368449 0.371211,-0.823393 1.134626,-2.451478 1.696484,-3.617961 0.561849,-1.166473 1.026431,-2.221677 1.03241,-2.344886 0.01141,-0.235271 -1.879398,-0.832776 -5.228939,-1.652378 -1.097867,-0.268636 -2.191084,-0.601965 -2.429383,-0.740725 -0.608284,-0.354209 -0.59013,-0.36694 -1.152856,0.808144 -0.461376,0.963426 -0.923195,2.144705 -2.267989,5.801208 -0.25235,0.686161 -0.638613,1.584413 -0.858342,1.996109 -0.21974,0.411706 -0.400211,0.864755 -0.401059,1.006778 -0.0019,0.262157 -1.332374,3.704797 -2.31154,5.979633 -2.536626,5.893221 -10.16428,2.829696 -7.936417,-3.187545 1.407337,-3.801063 1.813243,-4.863877 2.117932,-5.545464 0.184036,-0.411696 0.472674,-1.197669 0.641404,-1.746598 0.16873,-0.548938 0.445458,-1.222622 0.614951,-1.497086 0.169485,-0.274465 0.507048,-1.101177 0.750137,-1.83714 0.24309,-0.735954 0.596477,-1.634206 0.785304,-1.996109 0.188835,-0.361913 0.344023,-0.745903 0.344872,-0.853335 0.0038,-0.532906 2.160539,-5.642965 2.664465,-6.314179 1.435666,-1.912272 4.010467,-2.533287 6.764116,-1.631423 0.784756,0.257018 2.212802,0.661434 3.173437,0.898695 0.960625,0.237271 1.971156,0.528804 2.24563,0.647864 0.274464,0.119059 1.453414,0.447919 2.619897,0.730785 1.166482,0.282877 2.345432,0.614527 2.619906,0.737029 0.274464,0.122492 1.341135,0.417694 2.370385,0.656002 1.029242,0.238308 2.039782,0.526748 2.24563,0.64098 0.205849,0.114231 1.047961,0.370381 1.871354,0.569223 6.278079,1.516079 8.723021,3.001199 10.733493,6.519781 0.387121,0.677504 0.837907,1.400245 1.001752,1.606094 0.163854,0.205848 0.501031,0.935681 0.749297,1.621842 0.248257,0.68617 0.526037,1.359854 0.617286,1.497087 0.09129,0.137241 0.427049,0.979344 0.746223,1.871363 0.31916,0.892009 0.659672,1.734121 0.756662,1.871353 0.097,0.137242 0.3187,0.698647 0.49267,1.247575 0.17396,0.548929 0.51829,1.447181 0.76517,1.996119 0.24687,0.548929 0.61869,1.419116 0.82629,1.933736 0.46034,1.1412 0.60079,1.1513 1.73583,0.124756 0.49314,-0.446005 1.36706,-1.203903 1.94205,-1.684225 0.57498,-0.480313 1.39264,-1.172509 1.81702,-1.538222 7.89431,-6.803026 9.5682,-7.443534 12.03644,-4.605737 2.46891,2.838552 2.26473,4.593468 -0.84681,7.278444 -1.064,0.918132 -2.49595,2.152872 -3.18213,2.743851 -0.68616,0.590979 -2.93179,2.486428 -4.99028,4.212109 -2.0585,1.725681 -4.02343,3.402484 -4.36651,3.726232 -5.31183,5.012453 -8.306917,4.62719 -10.394436,-1.337071 -1.29386,-3.696686 -1.732065,-4.872345 -1.974843,-5.298281 -0.300012,-0.526333 -0.136176,-0.835153 -3.605164,6.795368 -1.403753,3.087742 -2.633826,5.726359 -2.733506,5.863591 -0.09967,0.137232 -0.38846,0.838991 -0.641743,1.559469 -0.253284,0.720469 -0.550626,1.309948 -0.660746,1.309948 -0.110129,0 -0.200463,0.140354 -0.200756,0.311894 -9.43e-4,0.530633 -2.007454,4.2669375 -2.667869,4.9676966 -0.81749,0.8674332 -0.850704,0.8234872 3.292185,4.356706 12.011895,10.244231 11.416894,9.6017144 11.563821,12.4872864 0.124157,2.438681 -0.705154,4.491487 -2.452855,6.071542 -0.07591,0.06865 -0.865679,0.961672 -1.755067,1.984567 -0.889387,1.022885 -1.897768,2.15008 -2.240848,2.504864 -0.34309,0.354783 -1.241342,1.359515 -1.996119,2.232729 -0.754777,0.873223 -1.54075,1.771881 -1.746598,1.997033 -0.205848,0.225153 -1.212117,1.358968 -2.236143,2.519595 -1.024026,1.160636 -2.427553,2.72913 -3.118938,3.485547 -0.691376,0.756418 -1.818458,2.03535 -2.504628,2.84207 -2.057502,2.41898 -4.432471,4.889895 -4.700022,4.889895 -0.138034,0 -0.455662,0.185242 -0.705843,0.411659 -0.83221,0.753136 -3.837756,0.74014 -5.304175,-0.02292 z m 28.425568,-87.413582 c -0.548938,-0.038 -1.222622,-0.173662 -1.497086,-0.301483 -0.274465,-0.127811 -0.971178,-0.352331 -1.548238,-0.498918 -0.577069,-0.146588 -1.200102,-0.417412 -1.384534,-0.601843 -0.184422,-0.184423 -0.683454,-0.515347 -1.108938,-0.735379 -6.942399,-3.590037 -6.113027,-16.100853 1.311646,-19.785978 1.511685,-0.750297 1.511685,-0.750297 1.166436,-1.786036 -0.942774,-2.828319 -3.281067,-3.3239 -8.545795,-1.811206 -9.139632,2.626065 -17.689802,1.416315 -20.006085,-2.830611 -0.251152,-0.460499 -0.13645,-0.470675 3.774148,-0.33497 6.547026,0.227189 11.422766,-1.489976 15.487477,-5.454469 2.585409,-2.521669 4.348944,-3.212272 7.667299,-3.002529 4.71083,0.297767 5.615367,1.698965 5.759644,8.922118 0.09777,4.895025 0.09777,4.895025 1.566099,5.048497 0.80758,0.0844 1.6663,0.264798 1.90827,0.40086 0.24196,0.136063 0.85479,0.41033 1.36183,0.609463 11.77955,4.626427 6.86561,23.046911 -5.912173,22.162484 z"
       id="path2701" />
    <path
       style="fill:#000000;stroke-width:0.197462"
       d="m -6.9778703,163.065 c -0.487146,-0.32528 -0.671306,-1.0994 -0.671306,-2.82185 0,-2.30479 -0.474168,-5.51441 -1.118486,-7.57102 -1.8018767,-5.75141 -5.3858947,-8.48317 -11.1241247,-8.47888 -3.812798,0.003 -7.299575,0.95161 -14.019764,3.81483 -6.006941,2.55933 -8.795966,3.39462 -12.659623,3.79145 -4.275713,0.43916 -7.586474,-0.49711 -9.854443,-2.78676 -2.06873,-2.08851 -2.952196,-4.51462 -2.953201,-8.1098 -8.02e-4,-3.08389 0.512266,-4.63412 2.226877,-6.7278 0.482815,-0.58956 1.294739,-1.38166 1.804276,-1.76023 l 0.92643,-0.68831 -0.753633,-0.58797 c -1.667312,-1.30083 -4.534594,-4.27234 -6.01153,-6.23006 -1.544209,-2.0469 -4.022849,-6.56806 -4.531418,-8.2655 -0.13475,-0.44975 -0.323499,-0.81773 -0.419445,-0.81773 -0.09595,0 -1.881242,1.21503 -3.96734,2.70006 -2.086088,1.48503 -3.992656,2.73936 -4.236813,2.78741 -0.672378,0.13229 -1.431963,-0.45657 -1.431963,-1.11013 0,-0.30255 0.111075,-0.68893 0.24683,-0.8586 0.135756,-0.16969 2.112834,-1.62262 4.393515,-3.22875 2.280682,-1.60612 4.169779,-2.93649 4.19799,-2.95637 0.02821,-0.0199 -0.132722,-1.09416 -0.357638,-2.38728 -0.276581,-1.59011 -0.417721,-3.31652 -0.436031,-5.33354 l -0.0271,-2.98241 -11.462964,3.8296 c -6.304638,2.10628 -11.707592,3.83953 -12.006586,3.85168 -1.116421,0.0454 -1.709909,-1.14015 -0.986704,-1.97098 0.236201,-0.27135 4.225058,-1.68601 12.604398,-4.47016 l 12.258837,-4.07318 0.243557,-1.32184 c 0.709524,-3.85071 3.243065,-9.52121 5.756767,-12.88457 5.143577,-6.882199 12.730441,-11.580682 21.083077,-13.056576 3.230814,-0.570873 8.114793,-0.567213 11.375434,0.0083 2.756013,0.486645 6.253308,1.611585 8.680627,2.792219 l 1.72032,0.836751 0.532751,-0.388772 c 0.293014,-0.213835 7.685793,-5.437444 16.4284004,-11.608041 8.742605,-6.170588 16.0538626,-11.367793 16.2472336,-11.549341 0.310365,-0.291379 0.325629,-0.45116 0.130162,-1.362569 -0.276523,-1.289386 0.02817,-2.753387 0.705489,-3.389681 0.730782,-0.68654 1.9872,-0.739183 3.18272,-0.133368 1.750781,0.887191 3.018024,2.639085 3.39874,4.698594 0.426863,2.309095 -0.53612,3.927926 -2.336568,3.927926 -0.72027,0 -2.059834,-0.633924 -2.795897,-1.323128 L 16.480828,54.378789 0.21975737,65.874556 C -8.7238313,72.197226 -16.062185,77.387305 -16.087691,77.408067 c -0.02552,0.02074 0.520428,0.453926 1.213197,0.962596 0.69277,0.50867 1.712435,1.331998 2.265918,1.829632 l 1.006336,0.904781 14.3926784,-4.796051 14.3926866,-4.796043 0.120565,-1.153483 c 0.461592,-4.416296 4.564651,-4.300297 6.239598,0.176386 0.797263,2.130875 0.394369,4.757551 -0.88398,5.7631 -0.696887,0.548175 -1.943121,0.565775 -2.806029,0.03964 -0.559215,-0.34097 -1.69785,-1.675217 -1.869775,-2.190995 -0.03393,-0.101736 -6.25544,1.881104 -13.8256156,4.40632 l -13.7639537,4.591289 1.007022,1.283501 c 3.392318,4.32368 5.7478787,9.57635 6.6917947,14.92203 0.574681,3.25456 0.57933,8.14531 0.01083,11.36219 -1.178325,6.66731 -4.2007217,12.58963 -8.8931034,17.42584 -3.802425,3.91897 -8.200174,6.68167 -13.407525,8.42274 -3.480222,1.16359 -6.356466,1.60809 -10.405625,1.60809 -5.644519,0 -10.173895,-1.0793 -15.127144,-3.60461 -2.021477,-1.03061 -2.450016,-1.18282 -2.835532,-1.00718 -0.808849,0.36854 -2.974942,2.55205 -3.513738,3.54199 -1.582869,2.90824 -0.90352,7.78406 1.406386,10.09397 2.997756,2.99775 8.703086,2.90646 16.713183,-0.26742 1.194644,-0.47336 3.286229,-1.34801 4.647965,-1.94368 5.37177,-2.34974 9.201251,-3.29013 13.398198,-3.29013 3.001556,0 4.853945,0.40228 6.968208,1.5133 4.3309987,2.27587 6.8664857,6.95665 7.6527347,14.12774 0.337963,3.08246 0.28143,5.16423 -0.150871,5.55546 -0.374328,0.33876 -1.156286,0.42827 -1.534588,0.17567 z M -30.870461,135.11215 c 0.579248,-0.66235 2.399137,-4.56513 3.076791,-6.5982 0.334536,-1.00366 0.778939,-2.64753 0.987575,-3.65303 0.412543,-1.98828 0.867483,-5.99083 0.709907,-6.2458 -0.05386,-0.0871 -0.87913,-0.0112 -1.833934,0.16877 l -1.736007,0.3272 -0.132558,2.65193 c -0.225594,4.51337 -1.314604,8.82446 -3.152489,12.47982 l -0.7883,1.56786 1.246828,-0.13467 c 0.922027,-0.0996 1.34461,-0.24648 1.622187,-0.56388 z m -4.639572,-1.49744 c 1.943704,-3.78399 2.954861,-7.54543 3.12519,-11.62552 l 0.109511,-2.62322 -0.829992,0.13271 c -0.652475,0.10435 -1.032501,0.34501 -1.776814,1.12527 l -0.946819,0.99254 -0.123371,2.29447 c -0.204507,3.80336 -1.103377,7.50997 -2.484876,10.24671 -0.6763,1.33974 -0.653892,1.37441 0.903669,1.39825 l 1.018358,0.0156 z m -5.025167,-0.98482 c 0.373498,-0.87263 0.857856,-2.1894 1.076348,-2.92615 0.367871,-1.24049 1.005685,-4.48865 1.005685,-5.12161 0,-0.1511 -0.821928,0.40889 -1.826513,1.24442 l -1.82652,1.51915 -0.421414,2.08893 c -0.231769,1.14891 -0.645055,2.69488 -0.918403,3.43548 -0.54812,1.48509 -0.609146,1.3616 0.892205,1.80538 1.011567,0.299 1.017777,0.29271 2.018612,-2.0456 z m 14.818299,1.76808 c 0.978405,-0.31808 0.996464,-0.33922 2.002673,-2.34393 1.15639,-2.3039 2.420279,-5.97165 3.006642,-8.72514 0.411926,-1.93437 0.934383,-6.266 0.774992,-6.42539 -0.08722,-0.0872 -3.157051,0.7749 -3.488389,0.97969 -0.09052,0.056 -0.215111,1.19303 -0.27688,2.52687 -0.1967,4.24777 -1.298625,8.64827 -3.166544,12.6455 l -0.899286,1.92442 0.529744,-0.13052 c 0.291356,-0.0718 0.974027,-0.27497 1.517048,-0.4515 z m -19.930356,-3.02287 c 0.28219,-0.84188 0.48351,-1.609 0.447376,-1.70473 -0.05242,-0.13881 -2.032218,0.93437 -3.916201,2.12281 -0.227927,0.14378 0.04479,0.34663 1.183253,0.88014 1.053197,0.49355 1.521668,0.62692 1.625971,0.46288 0.08059,-0.12673 0.37741,-0.91922 0.659601,-1.7611 z m 26.597497,0.0991 c 1.439853,-0.85113 1.631767,-1.03846 2.073595,-2.02399 1.701225,-3.79471 3.197369,-10.4483 3.204062,-14.24896 l 0.0018,-0.92031 -1.686186,0.74707 c -0.927407,0.41089 -1.720338,0.78122 -1.762072,0.82296 -0.04171,0.0418 -0.17477,1.31927 -0.295641,2.83897 -0.34033,4.27891 -1.47006,9.09227 -2.884889,12.29145 -0.491512,1.1114 -0.571537,1.43075 -0.358511,1.43075 0.06672,0 0.835333,-0.42208 1.708022,-0.93794 z m -30.601129,-2.35249 c 11.027572,-6.18933 19.160596,-15.95235 23.038442,-27.65573 1.987212,-5.99744 2.683011,-10.69028 2.511385,-16.93825 -0.09289,-3.381758 -0.465239,-7.018795 -0.843813,-8.242188 -0.06855,-0.221496 -0.597128,-0.492804 -1.486361,-0.762904 -0.758997,-0.230531 -1.41127,-0.386855 -1.449502,-0.347368 -0.03825,0.03946 0.04942,0.752596 0.194742,1.58471 1.056832,6.050505 0.835604,13.15707 -0.598339,19.22052 -3.141625,13.28441 -12.191009,24.79775 -24.335793,30.96193 -1.112697,0.56475 -2.023488,1.09125 -2.02398,1.17 -0.0014,0.22333 2.435058,2.11345 2.734008,2.12095 0.146646,0.004 1.163293,-0.49657 2.259211,-1.11167 z m 38.777674,-4.70675 c 0.702619,-0.86884 1.4919727,-1.94064 1.7541157,-2.38179 0.647925,-1.09035 1.269916,-4.76786 1.415505,-8.36918 l 0.115317,-2.85249 -0.672198,0.43689 c -0.369715,0.24028 -1.183136,0.72248 -1.8076027,1.07155 l -1.135404,0.63468 -0.0052,1.28728 c -0.01227,3.10122 -0.680775,7.74698 -1.571126,10.91854 l -0.546553,1.9469 0.587775,-0.55635 c 0.323279,-0.306 1.16265,-1.26721 1.865269,-2.13603 z m -42.941847,0.26159 c 11.900395,-6.03579 20.368589,-17.0963 23.331014,-30.4732 1.188227,-5.36544 1.216648,-12.609113 0.07169,-18.270653 l -0.258464,-1.278037 -1.354633,-0.150553 c -0.745051,-0.08279 -1.379548,-0.125632 -1.409997,-0.09518 -0.03047,0.03052 0.131948,1.075635 0.360884,2.322621 0.345923,1.884193 0.418077,3.06797 0.427058,7.006334 0.0094,4.122138 -0.04891,5.073238 -0.448033,7.306068 -0.771652,4.31703 -1.986676,7.97103 -3.989602,11.99811 -3.360088,6.7558 -8.465175,12.49234 -14.847756,16.6843 -1.911368,1.25535 -6.334696,3.59352 -6.809429,3.59945 -0.411295,0.006 -0.290328,0.24784 0.767163,1.53909 1.188542,1.45129 0.901702,1.46428 4.1601,-0.18836 z m -3.890595,-4.60987 c 6.571027,-3.14128 12.504957,-8.50761 16.589849,-15.00295 2.696035,-4.28694 4.66066,-9.53383 5.656167,-15.1058 0.408677,-2.28746 0.348314,-10.445771 -0.09465,-12.791375 -0.534974,-2.83283 -0.484899,-2.760772 -1.845257,-2.655339 -0.633789,0.04914 -1.215308,0.146681 -1.292261,0.216803 -0.07695,0.07016 -0.0067,0.83759 0.156084,1.705494 0.472768,2.520348 0.580344,8.434067 0.204719,11.253607 -0.604744,4.53931 -1.763564,8.32338 -3.779376,12.34134 -3.826831,7.62773 -9.982841,13.68046 -17.614762,17.31923 -1.278562,0.6096 -2.356419,1.13319 -2.395223,1.16354 -0.07053,0.0552 1.059113,2.14096 1.399816,2.5845 0.223155,0.29052 0.333087,0.253 3.014894,-1.02905 z m 30.211603,-3.95641 c 7.936849,-1.56286 15.58873,-4.9849 21.7320717,-9.7189 2.0379887,-1.57045 2.0700807,-1.63778 1.7381087,-3.6461 l -0.122115,-0.73877 -0.8136507,0.61346 c -6.2288547,4.69626 -13.9328667,8.15837 -21.6089137,9.71082 -1.337237,0.27045 -2.457077,0.52316 -2.488529,0.56157 -0.266533,0.32548 -2.484933,3.7325 -2.484933,3.81636 0,0.14243 1.145628,-0.0269 4.047961,-0.59844 z m -34.470164,-0.49325 0.875426,-0.39715 -1.238716,-0.58582 c -0.681294,-0.32221 -1.31143,-0.58583 -1.400295,-0.58583 -0.08888,0 -0.01945,0.44429 0.154148,0.98731 0.173656,0.54303 0.409838,0.98536 0.524869,0.98298 0.115021,-0.002 0.603076,-0.18306 1.084568,-0.40149 z m 5.736913,-3.17874 c 0.98903,-0.66827 1.727437,-1.27626 1.640903,-1.35108 -0.08653,-0.0749 -0.857064,-0.37908 -1.712295,-0.6761 l -1.554959,-0.54004 -1.30823,0.91069 c -1.843046,1.283 -2.125049,1.52316 -1.900612,1.61865 0.108604,0.0462 0.775036,0.34058 1.480955,0.65416 0.705928,0.31358 1.344813,0.57657 1.419757,0.58444 0.07495,0.007 0.945457,-0.53245 1.934481,-1.20072 z m 51.7246274,-1.62802 c 0.228365,-1.18355 0.369662,-2.19746 0.313988,-2.25314 -0.0557,-0.0556 -0.279484,0.0601 -0.497359,0.25729 -0.3462807,0.31337 -0.3961317,0.60725 -0.3961317,2.3354 0,1.08731 0.03698,1.9399 0.08215,1.89465 0.04516,-0.0453 0.268987,-1.05063 0.4973527,-2.2342 z m -57.7557404,-0.95809 c 0.8168,-0.57017 1.481905,-1.0811 1.478014,-1.13541 -0.0083,-0.1199 -4.16386,-2.17434 -4.395109,-2.17301 -0.09007,5.8e-4 -0.117704,0.2453 -0.0614,0.54396 0.05633,0.29866 0.159404,1.14362 0.229056,1.87769 0.125153,1.31876 0.436344,1.92344 0.989885,1.92344 0.150949,0 0.942737,-0.4665 1.759537,-1.03667 z m 37.466114,-0.53013 c 6.965604,-1.80622 13.843449,-5.16926 18.9479247,-9.26492 l 1.3111487,-1.05203 -0.2814997,-1.20666 c -0.154822,-0.66368 -0.313406,-1.23859 -0.352404,-1.27759 -0.039,-0.039 -0.680062,0.37216 -1.424576,0.91369 -4.8302807,3.51334 -10.9546997,6.41825 -16.7298137,7.93525 -1.180433,0.31006 -2.167236,0.5902 -2.192898,0.62251 -0.279346,0.35173 -1.812067,3.90925 -1.684262,3.90925 0.09438,0 1.177248,-0.26078 2.40638,-0.5795 z m -25.704602,-1.7337 c 1.355609,-1.45158 1.400725,-1.52992 0.957448,-1.66243 -0.255861,-0.0765 -1.487064,-0.42181 -2.736007,-0.76738 -2.717848,-0.75202 -6.110001,-2.06327 -8.721308,-3.37126 l -1.908892,-0.95614 -0.954298,0.31602 c -1.188618,0.39363 -1.178477,0.38275 -1.305769,1.40105 l -0.105174,0.8413 1.413091,0.82869 c 2.172916,1.27425 6.218206,3.06173 9.088212,4.01578 1.426078,0.47405 2.650735,0.86547 2.72146,0.86981 0.07072,0.005 0.76878,-0.6776 1.551237,-1.51544 z m 0.985901,-4.60081 c 0,-0.11017 -0.310723,-0.97091 -0.690496,-1.91273 -1.841262,-4.56625 -5.416185,-9.06104 -9.405506,-11.82564 -0.895663,-0.62069 -0.974949,-0.58148 -1.771716,0.87612 l -0.469257,0.85846 0.787667,0.61754 c 1.58624,1.24362 3.720555,3.43589 5.032411,5.16906 1.215672,1.60611 3.357514,5.09186 3.357514,5.46421 0,0.16009 2.239566,0.90413 2.813825,0.93483 0.190058,0.0101 0.345558,-0.0716 0.345558,-0.18185 z m 26.509201,-0.32277 c 0.298659,-0.0653 0.543015,-0.18457 0.543015,-0.26512 0,-0.39062 -0.868208,-2.1723 -0.991618,-2.03493 -0.07776,0.0866 -0.328194,0.72246 -0.556518,1.41309 l -0.415135,1.25568 0.438619,-0.12504 c 0.24124,-0.0688 0.682977,-0.17842 0.981637,-0.24368 z m -22.783098,-1.18437 0.78607,-1.31255 -0.50385,-1.40255 c -1.755886,-4.88778 -5.26478,-9.58922 -9.486397,-12.71047 -2.123301,-1.56986 -2.287665,-1.61514 -2.964625,-0.81684 -1.145195,1.35044 -1.192048,1.18101 0.721794,2.61018 4.233493,3.16138 8.176164,8.56951 9.923457,13.6119 0.254028,0.73307 0.523879,1.33286 0.599674,1.33286 0.07579,0 0.491542,-0.59064 0.923877,-1.31253 z m 27.818248,-0.61092 c 1.015155,-0.41257 1.82645,-0.85888 1.82652,-1.00479 5.75e-4,-1.225 -4.738139,-10.29665 -5.380711,-10.30073 -0.08145,-5.8e-4 -0.148579,0.28785 -0.149166,0.6408 -5.76e-4,0.35297 -0.178889,1.85292 -0.396223,3.33322 l -0.395152,2.69148 1.185144,2.44253 c 0.651831,1.34338 1.18556,2.55359 1.186067,2.68934 0.0011,0.35344 0.09969,0.33065 2.123521,-0.49185 z M -56.53084,100.4597 c -0.858786,-1.4538 -0.875482,-1.46304 -1.968237,-1.08955 l -0.983726,0.33623 1.382225,0.64703 c 1.757603,0.82277 2.002768,0.83936 1.569738,0.10629 z m 44.679549,-2.63192 c 0.953611,-0.55875 1.768742,-1.04534 1.811393,-1.08131 0.1613017,-0.13604 -0.852516,-2.64409 -2.145451,-5.30758 -2.057027,-4.23754 -4.621547,-7.929788 -7.988997,-11.502132 -1.458534,-1.547271 -2.072524,-1.995858 -1.815678,-1.326522 0.06384,0.166383 0.221216,1.743616 0.349697,3.504933 l 0.233607,3.202421 1.339926,1.79487 c 2.399167,3.21378 4.506259,6.95317 5.803674,10.29964 0.305268,0.78738 0.582694,1.43159 0.616507,1.43159 0.03382,0 0.841704,-0.45716 1.795322,-1.01591 z m -49.013747,-0.36421 c 0.760231,-0.24784 1.411645,-0.47537 1.447591,-0.50564 0.26042,-0.21925 -3.007611,-3.4457 -3.490099,-3.4457 -0.173628,0 -1.335206,3.50403 -1.202364,3.62705 0.332092,0.3075 1.504198,0.90238 1.665177,0.84512 0.108605,-0.0386 0.819465,-0.273 1.579695,-0.52083 z m 18.230471,-2.58764 0.594232,-1.69697 -0.785524,-1.44767 c -2.050772,-3.77943 -5.310266,-7.41923 -8.623355,-9.629452 -2.023639,-1.350022 -1.920914,-1.344518 -3.266548,-0.175003 l -0.761874,0.662164 1.65045,1.14938 c 3.715924,2.587801 7.621803,7.247001 9.548911,11.390591 0.434416,0.93407 0.848265,1.64107 0.919666,1.57111 0.07139,-0.07 0.39722,-0.89083 0.724042,-1.82415 z m 36.0568367,-0.63246 0.577785,-0.47307 -1.125801,-2.25179 c -0.619185,-1.23849 -1.723229,-3.09595 -2.453418,-4.12769 -1.2709917,-1.79586 -5.5432927,-6.318758 -5.9686627,-6.318758 -0.112161,0 0.230836,0.555366 0.762222,1.234134 2.229287,2.847604 4.744353,7.255704 6.2489927,10.952474 0.807516,1.98401 0.764653,1.96245 1.958882,0.9847 z M -40.71834,86.4527 c 0.13178,-1.35218 0.110317,-1.47019 -0.385643,-2.12044 -1.557641,-2.042163 -4.383417,-4.642352 -6.51249,-5.992576 l -0.961053,-0.609475 -0.911028,0.52237 c -1.766476,1.012878 -1.754142,0.869747 -0.167599,1.944875 2.017013,1.366837 5.941378,5.343416 7.363218,7.461176 l 1.174039,1.74869 0.130502,-0.76138 c 0.07178,-0.41876 0.193301,-1.40571 0.270054,-2.19324 z m -0.201661,-8.79667 c -0.177599,-1.216341 -0.391361,-2.281226 -0.475025,-2.366413 -0.15677,-0.159624 -4.166753,1.022706 -4.166753,1.228547 0,0.06334 0.59979,0.574819 1.332865,1.136621 0.733081,0.561792 1.821583,1.520387 2.418902,2.130212 1.050496,1.072463 1.088117,1.091953 1.149477,0.595655 0.03491,-0.282196 -0.08187,-1.508282 -0.259466,-2.724622 z"
       id="path3300" />
    <path
       style="fill:#000000;stroke-width:0.0830854"
       d="m 234.82979,134.92134 c -1.33384,-0.22154 -2.06753,-0.94041 -2.21514,-2.17042 l -0.0574,-0.47774 h 0.88198 c 0.8587,0 0.88201,0.005 0.88379,0.18694 0.003,0.30177 0.2865,0.84136 0.56553,1.07614 0.45971,0.38685 1.45737,0.50365 2.26323,0.26498 0.93901,-0.27809 1.30988,-1.01906 1.38863,-2.77435 l 0.0429,-0.95547 -0.24033,0.2908 c -0.31518,0.38136 -0.41873,0.46494 -0.8645,0.69788 -1.2885,0.67332 -3.29856,0.42572 -4.21567,-0.51929 -0.74691,-0.76963 -1.09876,-1.8375 -1.09913,-3.33584 0,-1.4745 0.38179,-2.56492 1.16695,-3.32968 0.74272,-0.72343 1.69144,-1.04018 2.90782,-0.97082 0.86906,0.0494 1.52,0.31386 2.05011,0.83242 l 0.35311,0.34543 v -0.55736 -0.55735 h 0.78932 0.78931 l -0.004,3.55191 c -0.004,4.48575 -0.0806,6.03561 -0.32843,6.69294 -0.10005,0.26529 -0.32091,0.62848 -0.49083,0.80711 -0.3849,0.40461 -1.20983,0.79496 -1.91898,0.90805 -0.63824,0.10186 -2.01781,0.0986 -2.6487,-0.006 z m 2.24706,-4.85332 c 0.44274,-0.15085 0.9944,-0.66793 1.22849,-1.15151 0.37741,-0.77961 0.41811,-2.51101 0.0802,-3.41395 -0.41066,-1.09759 -1.77019,-1.70951 -3.0258,-1.36191 -0.46977,0.1301 -1.04915,0.73939 -1.29414,1.36106 -0.17345,0.44016 -0.19645,0.63469 -0.19645,1.66171 0,1.49659 0.17345,1.99061 0.92895,2.64587 0.4368,0.37882 1.55394,0.50567 2.27866,0.25873 z m 16.76949,2.72836 v -2.05246 l -0.31157,0.30206 c -0.69661,0.67533 -1.79246,0.98392 -2.91286,0.82026 -0.87084,-0.12724 -1.53346,-0.46548 -2.12351,-1.08409 -0.76692,-0.80403 -1.10183,-1.70019 -1.18161,-3.16175 -0.11651,-2.13519 0.61487,-3.72737 2.03273,-4.42503 0.52928,-0.26042 0.58159,-0.26928 1.58735,-0.26833 0.97416,8.9e-4 1.07081,0.016 1.52562,0.23821 0.26707,0.1305 0.68768,0.44263 0.9347,0.69362 l 0.44915,0.4564 v -0.67383 -0.67383 h 0.83085 0.83085 v 5.94061 5.94062 h -0.83085 -0.83085 z M 252.3827,130.593 c 0.46845,-0.13912 1.06538,-0.74785 1.24219,-1.26676 0.22738,-0.6673 0.32842,-1.77995 0.23271,-2.56239 -0.16108,-1.31692 -0.57279,-2.03233 -1.40463,-2.44083 -0.40526,-0.199 -0.57489,-0.23311 -1.14074,-0.22942 -0.75241,0.005 -1.14176,0.15924 -1.59515,0.63229 -0.79041,0.82472 -0.97852,2.78409 -0.42149,4.39005 0.21785,0.62803 0.83474,1.32007 1.31041,1.47 0.39992,0.12601 1.36313,0.12982 1.7767,0.006 z m 59.42997,1.54207 c -0.0306,-0.0308 -0.0557,-4.08732 -0.0557,-9.01478 v -8.95902 l -9.16019,-0.0211 -9.16017,-0.0211 v -9.01479 -9.014771 l 9.16017,-0.02107 9.16019,-0.02107 v -8.972868 -8.972868 h 9.22248 9.22248 v 8.973235 8.973221 h 9.13942 9.1394 v 9.056321 9.05632 h -9.13904 -9.13902 l -0.0212,8.994 -0.0212,8.994 -9.14596,0.0211 c -5.03028,0.0122 -9.17105,-0.004 -9.20171,-0.0347 z m -116.62468,-0.37223 c -1.38212,-0.22831 -2.34189,-1.12412 -2.7952,-2.60891 -0.19231,-0.62986 -0.21623,-2.74223 -0.0391,-3.44451 0.2736,-1.08427 0.96245,-2.02153 1.81751,-2.47293 0.68466,-0.36144 1.25347,-0.4628 2.35941,-0.42047 0.84425,0.0324 1.00868,0.0646 1.49789,0.29345 1.24178,0.5811 1.78752,1.57543 1.93179,3.51974 0.0291,0.39164 0.0286,0.77487 -8.3e-4,0.85162 -0.0488,0.12725 -0.32503,0.13957 -3.11884,0.13957 h -3.06527 v 0.25362 c 0,0.47155 0.25712,1.38795 0.4944,1.76208 0.30409,0.4795 0.68168,0.76036 1.24471,0.92583 0.56314,0.16551 0.85764,0.16676 1.39912,0.005 0.6954,-0.20651 1.1457,-0.701 1.30331,-1.43118 l 0.0584,-0.27003 h 0.79426 0.7943 l -0.0484,0.40896 c -0.1433,1.20993 -1.29673,2.26283 -2.73458,2.49616 -0.61219,0.0994 -1.25576,0.0962 -1.8929,-0.01 z m 3.09142,-5.76261 c -0.068,-1.16294 -0.62076,-1.83491 -1.67361,-2.03458 -0.7939,-0.15056 -1.75862,0.1929 -2.21222,0.78761 -0.22917,0.30042 -0.53496,1.16076 -0.53496,1.50498 v 0.20166 l 2.22253,-0.0222 2.22254,-0.0222 z m 22.58553,5.76293 c -0.96136,-0.15938 -1.76858,-0.6723 -2.26463,-1.43903 -0.54108,-0.83634 -0.68853,-1.46033 -0.68794,-2.91144 8.2e-4,-1.3804 0.0902,-1.88051 0.47443,-2.64849 0.48017,-0.95965 1.36737,-1.65482 2.40173,-1.88192 0.28878,-0.0633 0.83375,-0.0885 1.42711,-0.0658 0.90501,0.0347 0.99574,0.0544 1.58608,0.34622 1.17476,0.5806 1.68134,1.53018 1.83489,3.43964 0.0909,1.13049 0.43534,1.01808 -3.11909,1.01808 h -3.06856 l 0.001,0.22849 c 0.003,0.44644 0.2462,1.37432 0.45308,1.72734 0.11555,0.19708 0.34474,0.46941 0.50944,0.60517 0.30986,0.2554 1.06238,0.51316 1.4982,0.51316 0.404,0 1.08234,-0.23627 1.3677,-0.4764 0.26722,-0.22484 0.65444,-0.93683 0.65593,-1.20607 8.3e-4,-0.12834 0.0946,-0.14541 0.80171,-0.14541 h 0.80088 l -0.0484,0.40896 c -0.1433,1.20994 -1.29675,2.26283 -2.73458,2.49616 -0.61168,0.0992 -1.25633,0.0963 -1.88937,-0.008 z m 3.09044,-5.76293 c -0.066,-1.26028 -0.82714,-2.04651 -1.99201,-2.05748 -1.12618,-0.0108 -1.95157,0.56323 -2.26373,1.57387 -0.0922,0.29845 -0.16761,0.63279 -0.16761,0.74297 v 0.20031 l 2.22254,-0.0222 2.22253,-0.0222 z m 47.26591,5.76386 c -1.34478,-0.22334 -2.41537,-1.2492 -2.78391,-2.66754 -0.28461,-1.0953 -0.23118,-2.87888 0.11582,-3.86618 0.35374,-1.00643 1.12944,-1.82157 2.09185,-2.19821 0.61683,-0.24141 2.1489,-0.30313 2.87932,-0.11596 1.65757,0.42464 2.49261,1.77932 2.50289,4.06033 l 0.003,0.6439 h -3.08509 -3.08509 l 0.0402,0.62761 c 0.0554,0.86206 0.43748,1.62746 1.00088,2.00464 0.92893,0.62189 2.20871,0.53616 2.90208,-0.19439 0.2466,-0.2598 0.48216,-0.75948 0.48216,-1.02273 0,-0.15857 0.0509,-0.16885 0.83745,-0.16885 h 0.83744 l -0.055,0.27004 c -0.13063,0.6418 -0.22029,0.884 -0.46241,1.24955 -0.76195,1.15032 -2.39079,1.68193 -4.22161,1.37784 z m 3.11729,-5.81904 c -0.13254,-1.26834 -0.82053,-1.97081 -1.96042,-2.00174 -1.28304,-0.0348 -2.16734,0.70163 -2.41144,2.00817 -0.0388,0.20811 -0.053,0.40704 -0.0313,0.44205 0.0216,0.0351 1.03326,0.0637 2.24804,0.0637 h 2.2087 z m -89.70245,5.71643 c -1.3666,-0.29688 -2.31777,-1.25054 -2.70464,-2.71172 -0.19045,-0.71927 -0.19286,-2.32129 -0.005,-3.10773 0.47801,-1.99791 1.81148,-3.12368 3.70003,-3.12368 1.07424,0 1.92471,0.36602 2.4323,1.04679 l 0.23277,0.31218 v -2.42428 -2.42428 h 0.83086 0.83085 v 6.18986 6.18987 h -0.7893 -0.78933 v -0.63258 -0.63258 l -0.39465,0.4203 c -0.76616,0.81594 -2.08781,1.17077 -3.34419,0.89785 z m 2.28485,-1.27822 c 0.18279,-0.0948 0.45183,-0.29744 0.59788,-0.44995 1.03116,-1.07693 1.14152,-3.86065 0.20233,-5.10332 -0.87917,-1.1632 -2.72055,-1.23061 -3.55977,-0.13036 -0.36648,0.48049 -0.60893,1.30536 -0.66464,2.26132 -0.0578,0.99272 0.0711,1.78876 0.39936,2.46611 0.41652,0.85938 1.02767,1.2007 2.06935,1.15573 0.4267,-0.0185 0.72792,-0.0813 0.95549,-0.19958 z m 73.591,1.21593 c -0.91223,-0.15194 -1.62945,-0.68313 -2.00596,-1.48572 l -0.21461,-0.45747 -0.0243,-3.34421 -0.0243,-3.34418 h 0.8344 0.83439 v 3.04375 c 0,2.08261 0.0308,3.14614 0.0972,3.368 0.28114,0.93834 1.61486,1.31937 2.81085,0.80302 0.45622,-0.19697 0.78783,-0.50154 1.02539,-0.94182 0.17271,-0.32004 0.18025,-0.44228 0.20403,-3.30265 l 0.0247,-2.9703 h 0.82694 0.82694 v 3.55991 c 0,1.95796 0.0243,3.90216 0.054,4.32045 l 0.054,0.76052 h -0.8433 -0.8433 v -0.2792 c 0,-0.15355 -0.0233,-0.44948 -0.0519,-0.6576 l -0.0519,-0.37841 -0.2631,0.34605 c -0.63781,0.83886 -1.85368,1.19575 -3.27012,0.95986 z m -53.2766,-6.18057 v -6.18986 l 2.63797,6.7e-4 c 1.45088,3.3e-4 2.87583,0.0392 3.16654,0.0864 1.06961,0.17356 1.99001,0.88333 2.34495,1.80831 0.27252,0.71017 0.26295,1.80945 -0.0212,2.42999 -0.29018,0.63385 -0.65723,1.02406 -1.23475,1.31264 l -0.49065,0.24519 0.6074,0.28846 c 1.13105,0.53713 1.62122,1.27419 1.69378,2.54701 0.0681,1.1945 -0.33222,2.17759 -1.16446,2.85955 -0.86519,0.70895 -1.40066,0.7955 -4.9432,0.799 l -2.59643,0.003 z m 5.43665,4.63652 c 0.90193,-0.25218 1.54253,-1.08255 1.54253,-1.99949 0,-0.50346 -0.25226,-1.10731 -0.61347,-1.46853 -0.56405,-0.56405 -0.8645,-0.62843 -2.93245,-0.62843 h -1.77156 v 2.11867 2.11868 h 1.6355 c 1.28423,0 1.74372,-0.0303 2.13945,-0.1409 z m -0.091,-5.79752 c 0.85479,-0.31351 1.27313,-0.99425 1.20069,-1.95378 -0.0661,-0.87475 -0.49313,-1.38698 -1.3119,-1.57343 -0.20563,-0.0468 -1.0936,-0.0861 -1.97327,-0.0871 l -1.5994,-0.001 v 1.91963 1.91964 l 1.64094,-0.0377 c 1.2949,-0.0298 1.72571,-0.0687 2.04294,-0.18514 z m 15.42577,1.161 v -6.18986 h 0.83086 0.83086 v 6.18986 6.18987 h -0.83086 -0.83086 z m 15.20465,1.86943 v -4.32044 h 0.78931 0.78933 v 4.32044 4.32044 h -0.78933 -0.78931 z m -0.16617,-7.14535 v -0.91394 h 0.95548 0.95549 v 0.91394 0.91394 h -0.95549 -0.95548 z m -16.5685,-5.77909 c -3.74865,-0.51036 -5.77503,-2.42444 -6.19393,-5.85069 -0.0519,-0.4248 -0.086,-3.03642 -0.086,-6.58454 v -5.880472 h 2.5341 2.5341 l 0.001,5.878302 c 0.001,6.40033 0.006,6.49373 0.47357,7.35031 0.66054,1.21365 2.41776,1.89017 4.0285,1.55097 1.00942,-0.21256 1.79369,-0.81423 2.18861,-1.67907 0.49407,-1.0819 0.48234,-0.9168 0.51631,-7.26376 l 0.0313,-5.836752 h 2.40396 2.40399 v 5.694622 c 0,5.85367 -0.0378,6.74277 -0.33892,7.97295 -0.53952,2.20414 -1.99645,3.59884 -4.51034,4.31768 -1.54058,0.44052 -4.12855,0.58337 -5.98635,0.33045 z m -132.777654,-0.005 c -2.234078,-0.16327 -4.076633,-0.77847 -5.337911,-1.78222 -1.492388,-1.18767 -2.545277,-3.28462 -2.84353,-5.66321 -0.123707,-0.98657 -0.10421,-2.79963 0.04043,-3.76093 0.185429,-1.23235 0.410698,-1.97332 0.909351,-2.99108 1.198087,-2.44533 3.125312,-3.867082 5.862302,-4.324745 1.163857,-0.194602 4.025377,-0.130097 5.066656,0.114192 2.327742,0.546067 3.784026,1.609833 4.623316,3.377143 0.2666,0.56137 0.51805,1.58718 0.5251,2.14208 l 0.003,0.22849 h -2.565796 -2.565792 l -0.09923,-0.39467 c -0.231524,-0.92076 -0.766688,-1.54641 -1.590472,-1.85944 -1.308313,-0.49711 -2.831991,-0.16027 -3.745358,0.82797 -0.539127,0.58335 -0.845456,1.19249 -1.129293,2.24564 -0.201925,0.74923 -0.215875,0.92073 -0.217187,2.67008 -0.0013,1.66697 0.01813,1.93959 0.178997,2.51716 0.393428,1.41262 1.114891,2.42263 2.028998,2.84049 1.310204,0.59893 3.127397,0.35775 3.895459,-0.51703 0.314407,-0.35808 0.560843,-0.88325 0.644489,-1.37342 l 0.05996,-0.35148 2.594145,-0.0221 2.59415,-0.0219 v 0.37858 c 0,0.65925 -0.24354,1.63675 -0.57904,2.32407 -0.87232,1.78709 -2.712899,2.90174 -5.403119,3.27209 -0.724491,0.0997 -2.348617,0.16815 -2.949533,0.12425 z m 36.094134,-0.0726 c -4.75854,-0.89634 -7.34683,-4.43538 -7.10971,-9.72129 0.25405,-5.6631 3.29197,-8.730234 8.90255,-8.988172 5.21523,-0.239762 8.64572,2.363072 9.46594,7.182152 0.3026,1.77789 0.23744,3.83959 -0.17105,5.41178 -0.79649,3.06552 -2.95036,5.13373 -6.20979,5.96281 -0.74077,0.18843 -1.04617,0.21754 -2.54504,0.24271 -1.23206,0.0207 -1.87744,-0.004 -2.3329,-0.09 z m 3.30083,-3.64731 c 1.81614,-0.48357 2.79391,-2.11612 2.98253,-4.97981 0.1025,-1.55615 -0.21565,-3.48902 -0.74497,-4.52622 -0.69069,-1.3534 -1.70575,-1.93527 -3.37897,-1.93698 -1.92909,-0.001 -3.1528,0.93755 -3.7612,2.88773 -0.31253,1.00181 -0.41313,1.9575 -0.36163,3.43549 0.0646,1.85309 0.41257,3.06565 1.14751,3.99849 0.32814,0.4165 1.03703,0.8855 1.61978,1.07162 0.59788,0.19095 1.87121,0.21628 2.49695,0.0498 z m 72.69543,3.64276 c -4.72356,-0.88599 -7.31917,-4.44686 -7.08275,-9.71674 0.25412,-5.66471 3.29039,-8.730167 8.90256,-8.988172 3.64756,-0.167698 6.46906,1.054031 8.05571,3.488152 1.10992,1.70275 1.57177,3.47928 1.57032,6.04008 -10e-4,2.44676 -0.45551,4.16221 -1.51196,5.71138 -1.09222,1.60166 -2.76805,2.72307 -4.90407,3.28164 -0.89842,0.23493 -1.087,0.2547 -2.66995,0.27979 -1.25252,0.0198 -1.87701,-0.005 -2.35986,-0.0961 z m 3.32778,-3.64276 c 1.75379,-0.46698 2.70095,-1.94152 2.95422,-4.59921 0.10599,-1.11293 0.0122,-2.64081 -0.2169,-3.51158 -0.61683,-2.34983 -1.75781,-3.33007 -3.87871,-3.33222 -1.48379,-0.001 -2.56203,0.574 -3.29222,1.75724 -0.28481,0.46153 -0.66923,1.71338 -0.77704,2.53039 -0.14073,1.06655 -0.0565,3.13354 0.16322,4.00994 0.41278,1.64569 1.27066,2.68699 2.55049,3.09576 0.59788,0.19095 1.87122,0.21628 2.49694,0.0498 z m 39.32854,3.71444 c -0.15994,-0.0169 -0.69465,-0.10578 -1.18824,-0.19775 -3.99536,-0.74401 -6.44382,-3.36782 -7.0431,-7.54748 -0.22714,-1.58415 0.0397,-3.98503 0.61048,-5.49419 1.17618,-3.10946 3.48565,-4.845183 7.12155,-5.352303 1.06015,-0.147865 3.28406,-0.169493 4.32342,-0.04201 2.09716,0.25715 3.90803,1.100319 4.80777,2.238553 0.65918,0.83393 1.08911,2.06736 1.08911,3.12452 v 0.36657 h -2.5184 -2.51839 l -0.10535,-0.41111 c -0.21439,-0.83653 -0.81777,-1.46991 -1.71238,-1.7975 -0.62106,-0.22743 -2.15006,-0.20799 -2.81822,0.0359 -1.08237,0.39497 -1.82643,1.08501 -2.37607,2.2036 -0.5762,1.17264 -0.69332,1.77099 -0.69332,3.54186 0,1.30823 0.0261,1.63154 0.17537,2.17149 0.56295,2.03635 1.87281,3.29629 3.83734,3.6911 0.78428,0.15762 2.20336,0.13485 3.34966,-0.0536 l 0.64391,-0.10588 v -1.72991 -1.72989 h -1.91097 -1.91095 v -1.70326 -1.70325 h 4.23735 4.23736 v 4.80926 4.80926 l -1.35013,0.25807 c -1.77003,0.33831 -2.27688,0.41389 -3.71809,0.5544 -1.07911,0.10525 -3.81336,0.1433 -4.5697,0.0637 z M 105.2895,105.01498 v -8.979389 l 5.58749,0.03494 c 4.92791,0.03086 5.66045,0.05194 6.20544,0.178996 1.98368,0.462504 3.09367,1.843013 3.28966,4.091363 0.12208,1.40065 -0.26553,2.65889 -1.04322,3.38634 -0.53277,0.49835 -1.72563,1.06935 -2.61272,1.25067 -0.36426,0.0745 -0.67438,0.14748 -0.68919,0.16229 -0.0148,0.0148 0.26436,0.0542 0.62035,0.0875 1.21664,0.11406 2.05087,0.49075 2.55747,1.15493 0.38356,0.50287 0.59958,1.31978 0.91427,3.45742 0.25588,1.73822 0.54079,3.23501 0.75517,3.96734 l 0.0548,0.18694 h -2.70677 -2.70677 l -0.0795,-0.31157 c -0.12873,-0.50436 -0.2488,-1.3596 -0.46383,-3.30264 -0.26538,-2.39782 -0.40205,-2.78323 -1.1109,-3.13241 -0.35609,-0.17542 -0.51843,-0.19334 -1.98716,-0.21944 l -1.59939,-0.0284 v 3.49723 3.49724 h -2.49258 -2.49256 z m 9.01476,-1.43327 c 0.79348,-0.3517 1.22606,-1.09157 1.22032,-2.08717 -0.005,-0.93136 -0.42536,-1.56236 -1.25758,-1.88948 -0.40984,-0.16109 -0.65802,-0.18515 -2.22682,-0.21579 l -1.76557,-0.0345 v 2.15463 c 0,1.18506 0.028,2.18261 0.0621,2.2168 0.0341,0.0342 0.86609,0.0488 1.84866,0.0325 1.48513,-0.0247 1.84256,-0.0545 2.11884,-0.177 z m 29.61998,1.43944 v -8.973242 h 2.53411 2.5341 v 8.973242 8.97322 h -2.5341 -2.53411 z m 7.16283,8.70319 c 0.81164,-1.07763 6.48242,-8.90592 6.51734,-8.99689 0.0252,-0.0659 -1.25672,-1.88797 -3.02075,-4.29318 -1.6856,-2.29826 -3.09323,-4.225379 -3.12812,-4.282502 -0.0503,-0.08239 0.60229,-0.103043 3.16106,-0.100189 l 3.22445,0.004 1.70326,2.735041 c 0.93679,1.50428 1.73563,2.72562 1.77518,2.71414 0.0396,-0.0108 0.86348,-1.2346 1.83094,-2.718 l 1.75899,-2.697073 2.88563,-0.02189 2.88563,-0.02189 -3.12898,4.176113 c -1.72095,2.29686 -3.15893,4.21479 -3.19555,4.26204 -0.0391,0.0506 1.29733,2.00658 3.25216,4.75944 1.8253,2.57043 3.31872,4.69095 3.31872,4.71225 0,0.0213 -1.43011,0.0378 -3.17803,0.0367 l -3.17802,-0.003 -1.90972,-3.12078 c -1.05035,-1.71643 -1.92966,-3.13309 -1.95402,-3.14816 -0.0243,-0.0151 -0.92226,1.3884 -1.99529,3.1188 l -1.951,3.14618 -2.93862,0.004 -2.93863,0.004 0.20337,-0.27003 z m 30.22563,-8.70936 v -8.979389 l 5.58751,0.03494 c 4.9279,0.03086 5.66044,0.05194 6.20545,0.178996 1.98469,0.462748 3.09353,1.842673 3.28995,4.094273 0.11378,1.30401 -0.21255,2.48242 -0.89376,3.22777 -0.52989,0.57977 -1.75615,1.20477 -2.76247,1.40798 -0.36426,0.0735 -0.67438,0.14583 -0.6892,0.16064 -0.0148,0.0148 0.26435,0.0542 0.62035,0.0875 1.21665,0.11406 2.05087,0.49075 2.55748,1.15493 0.3522,0.46175 0.59647,1.30603 0.83204,2.87584 0.36307,2.41926 0.53806,3.41866 0.70936,4.05134 0.0899,0.33181 0.16337,0.62157 0.16337,0.64391 0,0.0223 -1.21261,0.0406 -2.69468,0.0406 -2.49389,0 -2.69802,-0.0108 -2.73949,-0.14541 -0.10599,-0.34397 -0.31225,-1.76975 -0.50175,-3.46881 -0.26756,-2.39904 -0.40408,-2.78345 -1.11246,-3.1324 -0.3561,-0.17542 -0.51843,-0.19334 -1.98716,-0.21944 l -1.5994,-0.0284 v 3.49723 3.49724 h -2.49256 -2.49258 z m 9.14949,-1.51103 c 0.73191,-0.35944 1.10266,-1.04153 1.09462,-2.01394 -0.008,-0.91499 -0.44136,-1.56059 -1.26658,-1.88495 -0.40985,-0.16109 -0.65802,-0.18515 -2.22682,-0.21579 l -1.76557,-0.0345 v 2.15463 c 0,1.18506 0.028,2.18261 0.0622,2.2168 0.0342,0.0342 0.86608,0.0498 1.84864,0.0347 1.7561,-0.027 1.79446,-0.0314 2.25355,-0.2569 z m 71.1111,1.55873 v -8.931684 h 6.77145 6.77148 v 1.703244 1.70325 h -4.2789 -4.2789 v 1.86943 1.86943 h 4.02963 4.02965 v 1.70325 1.70325 h -4.02965 -4.02963 v 1.91096 1.91098 h 4.36198 4.36199 v 1.7448 1.74478 h -6.85455 -6.85455 z m -90.56318,0.33235 v -1.45399 h 3.53114 3.53113 v 1.45399 1.454 h -3.53113 -3.53114 z"
       id="path4486" />
    <path
       style="fill:#000000;stroke-width:0.300479"
       d="m 199.93349,32.863312 c -4.59057,-0.625283 -11.19722,-1.045624 -16.43442,-1.045624 -2.73321,0 -5.30474,-0.12747 -5.71451,-0.283268 -0.82755,-0.314623 -1.23472,-1.213114 -0.9526,-2.102002 0.35674,-1.123987 1.92959,-1.319487 8.85292,-1.100408 7.13421,0.225758 6.56724,0.179021 13.53868,1.115883 5.83197,0.783734 7.45986,0.665285 8.76275,-0.637621 0.95603,-0.956028 1.07188,-1.895682 0.42469,-3.444618 -0.4198,-1.004733 -0.44929,-1.018204 -1.55808,-0.71205 -1.46732,0.405146 -3.19477,0.114111 -4.93069,-0.830695 l -1.39199,-0.757615 -0.92564,0.864682 c -0.50911,0.475574 -1.47561,1.029455 -2.14778,1.230838 -1.22199,0.366118 -1.22226,0.366015 -2.35689,-0.889769 -6.18018,-6.840159 -12.20914,-17.7290385 -15.28681,-27.6094479 -2.22203,-7.1334791 -3.12808,-16.4547151 -2.19957,-22.6286431 1.59213,-10.586604 6.38254,-19.835575 14.29708,-27.603743 3.91801,-3.845549 7.74886,-6.574146 12.72157,-9.061172 5.93153,-2.966571 10.30797,-4.322041 16.61687,-5.146562 16.51157,-2.15792 33.30243,4.337208 44.60914,17.255938 2.89921,3.312577 4.8147,6.236234 6.9945,10.675937 4.79042,9.756836 5.87767,19.205635 3.56028,30.9406679 -1.98588,10.0562742 -8.44076,23.3165601 -15.42807,31.6938981 l -2.01117,2.411276 -0.87477,-0.452369 c -0.48113,-0.248795 -1.35265,-0.871933 -1.93671,-1.384745 l -1.06193,-0.932393 -1.18009,0.817805 c -3.53534,2.449994 -6.09971,2.136832 -11.491,-1.403274 l -2.76769,-1.817367 0.73944,-0.581628 c 2.4495,-1.926728 3.43521,-2.87218 5.0318,-4.826262 6.84703,-8.3802236 15.28035,-25.946831 15.88383,-33.086025 0.10689,-1.264535 0.25156,-2.299151 0.32149,-2.299151 0.70298,0 5.26588,3.897306 6.40666,5.472108 0.78008,1.076866 0.8307,1.099883 1.01132,0.459948 0.44644,-1.581771 0.55506,-7.723445 0.17986,-10.169486 -1.98996,-12.972727 -12.37848,-24.103179 -26.86946,-28.788425 -8.61417,-2.785142 -17.37428,-3.086135 -26.2537,-0.90206 -14.49734,3.565915 -25.74852,12.966938 -29.45701,24.613059 -1.13234,3.556003 -1.34555,5.475199 -1.18742,10.688592 0.13813,4.553908 0.37444,6.070909 0.77105,4.949873 0.39509,-1.116764 6.18688,-6.30966 7.04967,-6.320715 0.12395,-0.0019 0.22537,0.651561 0.22537,1.451444 0,4.200314 3.78684,14.0170125 8.99954,23.3296484 4.36234,7.7934516 8.1443,12.6771296 11.89282,15.3573416 l 0.87871,0.628281 -2.17164,1.444043 c -1.19439,0.794226 -2.17163,1.474621 -2.17163,1.511999 0,0.03738 0.25698,0.659814 0.57107,1.383189 1.35637,3.123832 0.91876,5.635879 -1.27301,7.30763 -2.17557,1.659384 -4.77983,1.965885 -10.30683,1.213057 z m 15.1583,-15.163256 c -6.41517,-4.028955 -18.55911,-26.4817982 -19.91459,-36.819927 -0.22672,-1.729157 0.14126,-2.967377 1.0219,-3.438689 1.44685,-0.774337 5.65701,2.725178 9.38629,7.80194 5.00686,6.8159898 10.42533,17.9392656 12.22206,25.090038 1.13924,4.534037 1.18609,6.779519 0.16281,7.802801 -0.66071,0.660703 -1.28183,0.566593 -2.87847,-0.436163 z m 21.89694,0.457896 c -1.98545,-1.985446 0.0938,-10.2767301 5.20245,-20.7451567 1.29038,-2.64422 3.04667,-5.9507924 3.90286,-7.3479399 3.50198,-5.7146074 8.11187,-11.0230294 10.69121,-12.3112094 1.24239,-0.620477 1.41392,-0.638838 2.05351,-0.219753 0.90721,0.594416 1.12709,1.801431 0.75664,4.153408 -1.60198,10.1712852 -13.11594,31.413825 -19.35291,35.704979 -1.6725,1.150705 -2.64085,1.378581 -3.25376,0.765672 z M 220.85808,-8.4270617 c -2.83769,-0.8663029 -5.25224,-3.1291153 -6.29913,-5.9032323 -1.29361,-3.427859 -0.47149,-7.387528 2.07544,-9.996188 2.34081,-2.397561 5.90119,-3.431391 9.24509,-2.684521 l 0.96494,0.215529 0.0867,-9.932832 0.0867,-9.932842 0.70937,-0.574097 c 0.90986,-0.736378 2.34631,-0.732612 5.679,0.0149 8.04072,1.803473 13.83453,5.101418 15.5919,8.875189 1.75493,3.768535 0.14734,8.846599 -4.28089,13.522486 -0.93832,0.990812 -1.15883,1.107172 -1.2554,0.662475 -0.0644,-0.296693 0.0267,-0.952244 0.20264,-1.456775 0.54343,-1.558913 0.72002,-4.527667 0.35066,-5.895306 -0.42238,-1.563962 -1.8139,-3.206269 -3.40399,-4.017469 -1.35384,-0.690672 -4.6377,-1.449393 -6.30666,-1.457122 l -1.1268,-0.0056 -0.003,9.540221 c -9.4e-4,5.247127 -0.14066,10.419133 -0.3098,11.493348 -0.53021,3.367389 -3.36771,6.6195434 -6.54569,7.5022211 -1.26603,0.3516265 -4.3518,0.3681609 -5.4619,0.029228 z"
       id="path3316" />
    <path
       style="fill:#000000;stroke-width:0.134231"
       d="m 353.62593,43.018876 c -2.11949,-0.212176 -4.54015,-0.850347 -5.7048,-1.503992 -1.29079,-0.724435 -4.26581,-3.977317 -6.0338,-6.597356 l -0.67773,-1.004358 0.002,-2.992697 c 7.8e-4,-1.645981 0.0609,-5.801465 0.13279,-9.234414 0.12779,-6.100999 0.1948,-8.106737 0.60532,-18.121133 0.11047,-2.69467997 0.2922,-7.517723 0.40384,-10.7178736 0.11164,-3.2001564 0.25923,-6.3713544 0.32799,-7.0471104 0.0688,-0.675756 0.22039,-3.433385 0.33698,-6.128064 0.11661,-2.69468 0.32949,-7.526982 0.47308,-10.738452 0.14359,-3.211469 0.32368,-8.073972 0.40021,-10.805565 0.41255,-14.728381 0.4815,-15.449613 1.68245,-17.597104 0.78416,-1.4022 1.08821,-1.623664 3.21932,-2.344856 3.36666,-1.139328 8.40934,-3.013977 10.60421,-3.942185 1.18124,-0.499543 2.75172,-1.086766 3.49,-1.304943 0.73827,-0.218176 2.61078,-0.90389 4.16115,-1.52381 1.55035,-0.619925 3.29844,-1.257637 3.88462,-1.417142 0.58617,-0.159503 2.21707,-0.728751 3.62423,-1.264997 1.40714,-0.53624 3.4343,-1.26201 4.50478,-1.612812 1.07049,-0.350802 4.39271,-1.512127 7.38269,-2.580718 2.98998,-1.068596 7.00683,-2.475513 8.92633,-3.126486 1.9195,-0.650974 4.30545,-1.470142 5.30211,-1.820376 1.79478,-0.630693 1.83171,-0.637389 3.86095,-0.699934 l 2.04884,-0.06317 1.77674,1.735001 c 3.27786,3.200871 4.28318,3.840942 7.87515,5.013961 2.85801,0.933331 3.30904,1.016423 7.96047,1.466565 1.53669,0.148713 1.93876,0.313716 2.31047,0.948202 0.25499,0.435246 0.27875,0.731511 0.32294,4.026918 0.0666,4.96287 -0.23239,13.306427 -1.32495,36.980538 -0.78795,17.073855 -1.17536,26.0272621 -1.40553,32.4838117 -0.3781,10.6059063 -0.54738,11.8300943 -1.91426,13.8429143 -0.89077,1.311718 -1.81079,1.985693 -3.31015,2.424912 -0.37597,0.110136 -2.01245,0.730477 -3.63665,1.378544 -1.62419,0.64806 -3.3759,1.315298 -3.89269,1.482753 -0.51679,0.167453 -2.14769,0.783695 -3.62423,1.369431 -1.47653,0.585736 -3.37446,1.303438 -4.21762,1.594893 -1.95917,0.677238 -2.87771,1.0609 -4.36289,1.822324 -0.65882,0.337758 -1.68567,0.781316 -2.28192,0.985682 -0.59625,0.204363 -1.78924,0.675954 -2.65107,1.047973 -0.86184,0.37202 -2.53463,1.042468 -3.71732,1.489891 -1.18271,0.447424 -2.89811,1.139618 -3.81201,1.53821 -0.91391,0.398592 -2.34424,0.975889 -3.17851,1.282883 -0.83428,0.306985 -3.00441,1.152502 -4.82255,1.878922 -1.81812,0.726427 -3.45669,1.364916 -3.64125,1.418867 -0.43247,0.126418 -2.89946,1.139884 -4.02833,1.654879 -0.48066,0.219267 -1.60911,0.643571 -2.5077,0.942904 -1.8293,0.609354 -3.70024,1.504102 -4.98593,2.384438 -0.47217,0.323295 -0.91502,0.587801 -0.98414,0.587801 -0.0691,0 -0.6467,0.343133 -1.28353,0.762519 -1.35802,0.894329 -2.85828,1.448024 -4.46222,1.646855 -1.25246,0.155267 -1.57942,0.154951 -3.15794,-0.0032 z m 1.87923,-4.1485 c 0.68871,-0.07218 1.95827,-0.356091 2.95308,-0.660317 0.95975,-0.293506 2.29742,-0.685877 2.97261,-0.871939 1.72429,-0.475156 3.15913,-1.132595 3.07586,-1.40934 -0.37026,-1.230685 -0.58946,-10.969692 -0.34443,-15.303149 0.13396,-2.369188 0.13867,-3.150732 0.0197,-3.26971 -0.11896,-0.118975 -0.43671,-0.101066 -1.32927,0.07493 -2.09622,0.413331 -3.00857,0.505685 -5.80389,0.587528 -3.34528,0.09794 -3.74234,0.01805 -7.56888,-1.523163 -1.94725,-0.784289 -2.72609,-1.035426 -3.2318,-1.042093 l -0.66628,-0.0088 -0.0968,0.604035 c -0.10792,0.673184 -0.45798,7.527494 -0.64826,12.693116 -0.15793,4.287539 -0.0656,5.021982 0.75527,6.008797 0.17361,0.208689 0.31564,0.477259 0.31564,0.596816 0,0.615868 1.92667,2.446626 2.57479,2.446626 0.14485,0 0.51573,0.14703 0.82418,0.326727 1.22986,0.71649 3.68469,1.01349 6.19851,0.749916 z m 15.6085,-6.030601 c 1.30813,-0.516283 2.55963,-0.981761 2.7811,-1.034408 0.22147,-0.05266 1.33896,-0.499542 2.48326,-0.993101 1.14432,-0.493565 3.04703,-1.248098 4.22827,-1.676745 1.18123,-0.428652 3.02354,-1.153863 4.09404,-1.61158 1.07048,-0.457721 2.42957,-0.996712 3.02018,-1.197756 0.59062,-0.201044 2.31213,-0.868922 3.82558,-1.484164 1.51344,-0.615242 3.23495,-1.281293 3.82556,-1.480114 0.59062,-0.198828 1.9195,-0.725425 2.95307,-1.170225 2.38547,-1.026578 4.15964,-1.713699 4.42487,-1.713699 0.11371,0 1.12775,-0.397497 2.25343,-0.883334 1.12569,-0.485834 2.98295,-1.233727 4.12727,-1.661983 1.14432,-0.428262 3.05239,-1.203175 4.24018,-1.722035 1.18779,-0.518859 2.60728,-1.07651 3.15442,-1.239215 1.55917,-0.463667 2.54148,-1.037055 2.9841,-1.741886 0.4146,-0.660186 0.79559,-6.1786046 1.30208,-18.859397 0.40207,-10.066536 0.56981,-13.42541 2.20558,-44.16188 0.8072,-15.167534 0.89759,-18.032876 0.577,-18.289883 -0.20463,-0.16403 -1.6284,0.233837 -8.0203,2.241247 -2.54702,0.799904 -5.6578,1.75607 -6.91287,2.124812 -1.25505,0.368742 -5.06048,1.550609 -8.45653,2.626378 -3.39603,1.075764 -6.74844,2.113276 -7.44979,2.305583 -0.70136,0.192314 -3.0571,0.915855 -5.23499,1.607876 -2.1779,0.692021 -4.44303,1.387178 -5.03365,1.544785 -0.59062,0.157606 -2.77649,0.829208 -4.85749,1.492438 -2.081,0.663236 -4.0899,1.254288 -4.46419,1.313458 -0.86571,0.136852 -1.16364,0.412317 -1.34116,1.240032 -0.0782,0.36484 -0.29373,3.182725 -0.47886,6.261959 -0.18513,3.079239 -0.48528,7.893957 -0.66701,10.699377 -0.5611,8.662326 -0.7467,12.378333 -1.07934,21.61113 -0.34489,9.5723573 -0.71406,16.4447997 -1.6116,30.000546 -0.9575,14.461357 -1.03935,16.41594 -0.70197,16.764006 0.30242,0.311998 1.37557,0.05637 3.82976,-0.912222 z M 406.6823,15.658517 c -0.17319,-0.634456 0.18249,-1.632964 0.80255,-2.25302 0.31826,-0.318262 0.66028,-0.578659 0.76004,-0.578659 0.0998,0 0.25657,-0.0906 0.34848,-0.201343 0.0919,-0.11074 0.2588,-0.201349 0.37087,-0.201349 0.11207,0 0.452,-0.118482 0.75539,-0.263293 0.30338,-0.144812 1.04995,-0.393043 1.65902,-0.551628 0.60907,-0.158581 1.10741,-0.335075 1.10741,-0.392201 0,-0.05713 0.12049,-0.135385 0.26778,-0.173896 0.39927,-0.104414 0.46373,-0.444649 0.14838,-0.783133 -0.45186,-0.4850256 -1.47156,-0.7744766 -2.96655,-0.8420946 -0.65672,-0.02973 -4.00561,0.7557736 -4.47535,1.0496886 -0.1594,0.09974 -0.62205,0.256231 -1.0281,0.347758 -0.40605,0.09153 -0.82887,0.243715 -0.93961,0.338196 -0.11075,0.09449 -0.46771,0.24273 -0.79326,0.329443 -0.32555,0.08672 -0.71816,0.237415 -0.87249,0.334893 -0.15433,0.09747 -0.49201,0.220079 -0.7504,0.272455 -0.2584,0.05238 -0.56042,0.174577 -0.67116,0.271557 -0.11074,0.09698 -0.50337,0.248815 -0.87249,0.337414 -0.36915,0.0886 -0.80193,0.242169 -0.96176,0.341265 -0.45497,0.282095 -4.48048,1.225279 -5.07863,1.189933 -1.58225,-0.09351 -2.26555,-0.334237 -2.7384,-0.96473 -0.15337,-0.204498 -0.32923,-0.433324 -0.39077,-0.508496 -0.16717,-0.204138 -0.42821,-1.329183 -0.42591,-1.835549 0.004,-0.914357 0.57168,-2.0414976 1.34707,-2.6753896 0.30487,-0.249231 0.67891,-0.558852 0.83121,-0.688049 0.15231,-0.129196 0.38109,-0.234903 0.50841,-0.234903 0.12732,0 0.30144,-0.08429 0.38693,-0.187306 0.0855,-0.103017 0.35864,-0.225426 0.60699,-0.272015 0.24834,-0.04657 0.52016,-0.167397 0.60404,-0.268461 0.0839,-0.101061 0.36177,-0.223006 0.61752,-0.27099 0.25577,-0.04799 0.46503,-0.1384 0.46503,-0.200927 0,-0.06253 0.42282,-0.21731 0.93961,-0.343954 0.51679,-0.126644 0.93962,-0.278138 0.93962,-0.336647 0,-0.05852 0.30202,-0.178839 0.67114,-0.267393 0.36915,-0.08855 0.67116,-0.210582 0.67116,-0.271183 0,-0.0606 0.17704,-0.149063 0.39342,-0.1965841 0.21638,-0.047541 0.46539,-0.1731308 0.55335,-0.279127 0.0879,-0.1059961 0.24316,-0.1927191 0.34485,-0.1927191 0.10171,0 0.18492,-0.060404 0.18492,-0.1342289 0,-0.073831 0.081,-0.1342337 0.18,-0.1342337 0.30862,0 1.69922,-1.4005765 1.69922,-1.7114013 0,-0.1574135 0.056,-0.3208597 0.12459,-0.3632065 0.0686,-0.04236 0.10805,-0.3630285 0.0878,-0.7126286 -0.0463,-0.79995007 -0.47784,-2.4654884 -0.61672,-2.3796592 -0.0573,0.035412 -0.30816,-0.020903 -0.55756,-0.1251067 -0.78463,-0.3278355 -2.66086,-0.075464 -3.80335,0.51158488 -0.2953,0.1517371 -0.73112,0.4890544 -0.96845,0.74959765 -0.85878,0.942718 -1.38066,1.64452427 -1.38485,1.86227547 -0.002,0.1222105 -0.0886,0.3334816 -0.19164,0.4694862 -0.10305,0.1360055 -0.22725,0.4833272 -0.27599,0.7718245 -0.0528,0.3123016 -0.16323,0.524542 -0.273,0.524542 -0.17617,0 -0.24981,-0.1997507 -0.60621,-1.6443222 -0.0865,-0.3506815 -0.2078,-0.6375957 -0.26951,-0.6375957 -0.0618,0 -0.15148,-0.2092619 -0.19946,-0.46502607 -0.048,-0.2557651 -0.17153,-0.5349783 -0.27454,-0.6204734 -0.10301,-0.085496 -0.1873,-0.2658596 -0.1873,-0.4008039 0,-0.13494435 -0.0761,-0.29365745 -0.16912,-0.35270025 -0.093,-0.059034 -0.28796,-0.3338523 -0.43321,-0.61070698 -0.14525,-0.2768483 -0.31077,-0.5033658 -0.36781,-0.5033658 -0.057,0 -0.10371,-0.081244 -0.10371,-0.1805379 0,-0.099299 -0.1216,-0.2905979 -0.27022,-0.4251058 -0.14864,-0.1345078 -0.4053,-0.5213908 -0.57036,-0.8597438 -0.16507,-0.3383523 -0.33734,-0.6453877 -0.38284,-0.6823004 -0.0456,-0.036938 -0.12843,-0.2181259 -0.18434,-0.402692 -0.0559,-0.1845661 -0.16626,-0.4161719 -0.24525,-0.5146747 -0.079,-0.098503 -0.36571,-1.0822228 -0.63715,-2.1860474 -0.27145,-1.1038191 -0.51935,-2.0327627 -0.5509,-2.0643183 -0.0315,-0.031553 -0.38679,0.033688 -0.78941,0.1449432 -0.40261,0.1112774 -1.00383,0.2267205 -1.33606,0.2565407 -0.33221,0.029829 -0.99666,0.095627 -1.47653,0.1462271 -0.89487,0.094368 -2.79471,0.1144439 -5.16789,0.054608 -1.15716,-0.029173 -1.57373,0.027244 -3.02018,0.4089473 -0.92283,0.2435329 -1.7685,0.5165974 -1.87924,0.6068051 -0.11074,0.090208 -0.39764,0.2057426 -0.63759,0.2567385 -0.23993,0.050994 -0.43624,0.1455835 -0.43624,0.2102016 0,0.064617 -0.20927,0.156739 -0.46503,0.2047226 -0.25577,0.04799 -0.52893,0.1642475 -0.60705,0.2583719 -0.0999,0.1203584 -0.44661,0.1558764 -1.1686,0.1197037 -0.56463,-0.028311 -1.05368,-0.078539 -1.08682,-0.111668 -0.098,-0.09801 0.33846,-0.475711 0.54974,-0.475711 0.10698,0 0.26969,-0.090609 0.36161,-0.2013484 0.0919,-0.1107398 0.25344,-0.2013436 0.35897,-0.2013436 0.10553,0 0.41525,-0.1151483 0.68827,-0.2558861 0.86317,-0.4449422 1.72806,-0.817961 1.89656,-0.817961 0.0894,0 0.246,-0.083329 0.34785,-0.1851694 0.10184,-0.1018462 0.4145,-0.2281967 0.69481,-0.2807856 0.2803,-0.052584 0.54778,-0.1573131 0.59439,-0.2327268 0.0992,-0.1604833 3.38293,-1.0386442 3.87567,-1.0364572 0.18457,10e-4 0.75841,-0.0385 1.2752,-0.08734 0.51678,-0.04885 2.05708,-0.09637 3.42287,-0.10558 1.67721,-0.01131 2.52684,-0.06662 2.6175,-0.170362 0.0738,-0.08448 0.37285,-0.195534 0.6645,-0.246795 0.29164,-0.05126 0.59366,-0.171548 0.67114,-0.267316 0.0775,-0.09576 0.29546,-0.209815 0.48437,-0.253451 0.28079,-0.06485 0.41927,0.01182 0.75873,0.420149 0.22839,0.274718 0.57554,0.680698 0.77144,0.9021774 0.1959,0.221479 0.54913,0.636966 0.78492,0.9233021 0.23581,0.2863412 0.5028,0.5883586 0.59328,0.6711552 0.0905,0.082796 0.57566,0.5431658 1.07814,1.0230426 1.4921,1.4249834 2.38303,2.1289069 3.07308,2.428022 2.3568,1.0215975 4.95895,1.6067755 4.14646,0.9324595 -0.11387,-0.0945 -0.20704,-0.2871271 -0.20704,-0.428058 0,-0.1409308 -0.0847,-0.2887304 -0.18815,-0.3284396 -0.10348,-0.039721 -0.22703,-0.2794313 -0.27454,-0.53271 -0.0475,-0.2532787 -0.14406,-0.4605068 -0.21454,-0.4605068 -0.0705,0 -0.12816,-0.068886 -0.12816,-0.1530865 0,-0.1374655 -0.35986,-0.9841256 -0.69644,-1.6385435 -0.0701,-0.1363849 -0.0996,-0.2759305 -0.0654,-0.3101093 0.0342,-0.034147 -0.0148,-0.3541154 -0.10903,-0.7109853 -0.20172,-0.7646654 -0.14884,-1.2000294 0.24511,-2.0183708 0.60336,-1.253354 1.7258,-1.887814 3.19812,-1.807758 0.83972,0.04566 1.82586,-0.159484 2.16102,-0.449543 0.43489,-0.376392 1.00995,-0.257333 1.50087,0.310728 0.46575,0.538951 0.54873,0.572759 1.58313,0.644997 0.34981,0.0244 0.65789,0.07029 0.6846,0.101912 0.11874,0.14052 0.33004,1.247429 0.26866,1.407374 -0.0375,0.09755 -0.25934,0.217985 -0.4931,0.267626 -0.23377,0.04962 -0.51565,0.1694134 -0.62639,0.2661604 -0.28148,0.245923 -2.76149,0.8565883 -3.12422,0.7692923 -0.16426,-0.039522 -0.44966,-0.2077964 -0.63424,-0.3739213 -0.49719,-0.447509 -1.12967,-0.7307504 -1.44668,-0.6478534 -0.30907,0.08083 -0.52992,0.4840474 -0.30599,0.5586904 0.0781,0.02603 0.14192,0.155679 0.14192,0.2881424 0,0.1324634 0.0906,0.3160357 0.20134,0.4079431 0.11074,0.091907 0.20134,0.222747 0.20134,0.2907544 0,0.068008 0.15101,0.2865089 0.33558,0.4855589 0.18456,0.1990454 0.33558,0.411327 0.33558,0.4717296 0,0.06041 0.27182,0.3777973 0.60404,0.7053125 0.33222,0.3275218 0.60403,0.6719972 0.60403,0.7655128 0,0.093511 0.21027,0.4109768 0.46726,0.7054811 0.257,0.2944987 0.55954,0.7269049 0.67234,0.9609102 0.11278,0.2339997 0.24984,0.4454141 0.30456,0.469806 0.1522,0.067842 0.5693,0.8656497 0.5693,1.0889145 0,0.1087665 0.0859,0.2690309 0.19086,0.3561496 0.10496,0.087117 0.23108,0.3965332 0.28026,0.6875872 0.0492,0.2910596 0.15095,0.5291942 0.2262,0.5291942 0.0753,0 0.10449,0.084171 0.0649,0.1870368 -0.0394,0.10287088 0.0316,0.60120468 0.15808,1.10740133 0.59104,2.36676277 -0.17474,4.85570937 -2.03748,6.62228837 -0.42982,0.407632 -0.85265,0.764132 -0.93962,0.792223 -0.087,0.02811 -0.24872,0.128303 -0.35946,0.222697 -0.35268,0.300628 -1.49906,0.86297 -2.06781,1.014333 -0.30232,0.08046 -0.64029,0.218688 -0.75103,0.307171 -0.11075,0.08848 -1.53023,0.483672 -3.15442,0.878196 -1.62419,0.3945226 -3.04368,0.7950336 -3.15442,0.8900206 -0.11074,0.09499 -0.3653,0.213615 -0.56567,0.263622 -0.34252,0.08548 -0.62789,0.526181 -0.45358,0.700489 0.0436,0.04353 0.39634,0.08687 0.78408,0.09637 0.76765,0.01883 6.40925,-1.319977 6.55481,-1.55549 0.0455,-0.07355 0.55961,-0.25591 1.14254,-0.4052476 0.58293,-0.149336 1.09149,-0.322645 1.13011,-0.385133 0.14446,-0.233751 5.55364,-1.50647 6.50866,-1.531421 0.51678,-0.01349 0.99484,0.0035 1.06236,0.03799 0.0675,0.0344 0.27892,0.07713 0.46981,0.09497 1.82191,0.170335 3.42352,1.228348 3.4094,2.2522326 -0.0174,1.264191 -0.4158,1.682037 -1.98748,2.084668 -0.58148,0.148962 -1.10992,0.238287 -1.1743,0.198497 -0.17437,-0.107761 -2.01683,0.37206 -2.22394,0.579161 -0.0985,0.09849 -0.28594,0.179082 -0.41658,0.179082 -0.13063,0 -0.48729,0.244832 -0.79254,0.544069 -0.50247,0.49254 -0.69097,0.888713 -0.85879,1.804962 -0.0443,0.241514 -0.058,0.23606 -0.13729,-0.05427 z M 392.77849,3.5984856 C 391.83273,2.72619 391.44502,2.4322691 390.84962,2.1361828 389.85759,1.6428664 389.60344,1.5400671 389.3289,1.5210726 c -0.42451,-0.029373 -2.25885,0.4508729 -2.49146,0.6522871 -0.11655,0.1009232 -0.2565,0.1834905 -0.31097,0.1834905 -0.0545,0 -0.29704,0.1510121 -0.53903,0.3355781 -0.52536,0.4007072 -0.96214,0.4545658 -0.81644,0.1006731 0.0532,-0.1291951 0.12878,-0.3557133 0.16797,-0.5033657 0.0393,-0.1476533 0.11267,-0.3288654 0.16325,-0.4026916 0.0506,-0.073831 0.10481,-0.3706539 0.12053,-0.6596128 0.0157,-0.28896467 0.0667,-0.58699987 0.11318,-0.66230677 0.0464,-0.075306 0.0999,-0.7147346 0.11862,-1.42096065 0.0661,-2.49694388 0.2067,-3.28042088 0.80453,-4.48289068 0.10392,-0.2090094 0.18893,-0.4424312 0.18893,-0.5187178 0,-0.2651909 1.2628,-2.259843 1.40278,-2.2157713 0.0775,0.024398 0.32209,0.772407 0.54357,1.6622612 0.22148,0.8898533 0.47081,1.7014468 0.55404,1.8035365 0.0832,0.1020945 0.1971,0.3366327 0.253,0.5212035 0.0559,0.1845661 0.1388,0.3657738 0.18422,0.402692 0.0454,0.036938 0.2018,0.3087297 0.34751,0.6040356 0.28762,0.582905 0.88219,1.4494474 1.04382,1.5212798 0.0554,0.024604 0.10067,0.1322096 0.10067,0.2391188 0,0.1069046 0.0906,0.22914 0.20135,0.2716336 0.11074,0.042511 0.20134,0.18729558 0.20134,0.32177838 0,0.134477 0.0906,0.3351155 0.20135,0.4458553 0.11073,0.11073965 0.20134,0.25867175 0.20134,0.32872835 0,0.070067 0.0843,0.1973353 0.18731,0.2828305 0.10302,0.085496 0.22574,0.3603151 0.27271,0.6107065 0.0469,0.25039227 0.13939,0.47475267 0.2054,0.49858277 0.1528,0.055165 0.81789,2.6608244 0.67918,2.6608244 -0.0569,0 -0.34894,-0.2265162 -0.64911,-0.5033657 z m -8.46685,-1.3087499 c -0.0837,-0.3322184 -0.19654,-0.6047304 -0.25084,-0.605578 -0.0543,-0.00105 -0.21955,-0.2575599 -0.36721,-0.5704801 -0.26493,-0.56148517 -0.62419,-1.01976027 -1.54365,-1.96913352 -0.50882,-0.52536958 -1.47323,-1.17148218 -1.65845,-1.11108518 -0.0632,0.020596 -0.18395,-0.016737 -0.26846,-0.082999 -0.25178,-0.1973353 -0.90113,-0.3228326 -1.89866,-0.3669549 -0.82694,-0.036581 -1.35086,0.032367 -2.25989,0.2973141 -0.2103,0.061304 -0.22538,0.032471 -0.10277,-0.1965795 0.21777,-0.4069027 1.12225,-1.268412 1.63675,-1.5589996 0.2516,-0.1420978 0.48765,-0.2931595 0.52456,-0.3357045 0.1967,-0.2266889 1.42772,-0.6851316 2.55039,-0.9497895 0.70134,-0.1653378 1.40549,-0.3816579 1.56475,-0.4807141 0.15925,-0.09906 0.58209,-0.2527909 0.93961,-0.3416348 0.59215,-0.1471402 1.62611,-0.5980735 1.79102,-0.7810972 0.11143,-0.1236765 1.29417,-0.6782833 1.44649,-0.6782833 0.0781,0 0.16203,-0.055936 0.18665,-0.1243051 0.0246,-0.068372 0.21963,-0.1677277 0.4334,-0.2207949 l 0.38865,-0.096494 -0.26619,0.5228171 c -0.1464,0.2875493 -0.40576,0.8248354 -0.57635,1.1939667 -0.17059,0.3691378 -0.36257,0.7775823 -0.42663,0.9076564 -0.50782,1.0312666 -0.60456,1.5949028 -0.69814,4.0672616 -0.0337,0.89053348 -0.13595,1.88719533 -0.2272,2.214808 -0.0913,0.327607 -0.17885,0.6862576 -0.19466,0.7969975 -0.0158,0.1107398 -0.0732,0.3221527 -0.12739,0.469806 -0.0542,0.1476524 -0.12113,0.3439688 -0.14864,0.4362522 -0.10213,0.342512 -0.29955,0.1498897 -0.44714,-0.4362524 z m 26.66558,-3.19268322 c -0.66672,-0.16059468 -1.98068,-0.74996768 -1.98181,-0.88892988 -4e-4,-0.043729 -0.20303,-0.2998923 -0.45042,-0.5692124 -0.5248,-0.5713479 -0.74959,-1.3590918 -0.6772,-2.3731555 0.0408,-0.571774 0.19666,-0.9619704 0.77741,-1.9463443 0.39951,-0.6771566 0.85329,-1.3763515 1.00842,-1.5537595 0.15513,-0.1774071 0.28205,-0.4058165 0.28205,-0.5075765 0,-0.1017601 0.0843,-0.2173701 0.18734,-0.2569061 0.3271,-0.1255233 0.0468,-0.7360979 -0.461,-1.0040383 -0.25553,-0.134843 -0.57032,-0.276352 -0.69951,-0.314462 -0.2966,-0.0875 -0.30956,-0.480416 -0.0158,-0.480416 0.12048,0 0.42767,-0.128931 0.68264,-0.286508 0.31215,-0.192926 0.75014,-0.303246 1.34091,-0.337738 0.48252,-0.02815 0.92385,-0.07999 0.98073,-0.115138 0.15781,-0.09753 1.34159,0.352684 1.94242,0.738746 0.29415,0.189005 0.60427,0.482966 0.68917,0.653246 0.0849,0.1702844 0.22175,0.3770064 0.30412,0.4593804 0.0824,0.08238 0.14978,0.258505 0.14978,0.391394 0,0.1328899 0.0487,0.2416152 0.1084,0.2416152 0.0597,0 0.21109,0.2327568 0.3366,0.5172417 0.26092,0.5913772 0.67979,1.0869658 1.16577,1.3792634 0.37509,0.2256034 1.96413,0.3053656 2.08808,0.1048087 0.043,-0.069558 0.1382,-0.089361 0.21157,-0.043989 0.0734,0.045357 0.24442,-0.01801 0.38009,-0.1407838 0.40846,-0.3696493 0.45949,0.095342 0.14249,1.2982433 -0.11754,0.4460229 -0.34818,0.8106953 -0.78528,1.241635 -0.34037,0.3355724 -0.692,0.6101391 -0.78139,0.6101391 -0.0894,0 -0.25657,0.094038 -0.37152,0.2089785 -0.19325,0.193251 -0.95683,0.2015863 -1.82365,0.019939 -0.35153,-0.073669 -1.04754,-0.4855534 -1.10333,-0.6529111 -0.0301,-0.090061 -0.15278,-0.1231943 -0.27816,-0.075076 -0.39937,0.1532485 0.0736,0.9319976 0.85538,1.4081807 0.37799,0.2302562 0.63596,0.2819628 1.20807,0.242158 0.4001,-0.027853 0.8592,-0.020951 1.02022,0.015322 0.27477,0.061897 0.26241,0.091989 -0.20134,0.4897444 -0.27177,0.2330874 -0.52432,0.4616129 -0.56123,0.5078311 -0.0369,0.046219 -0.26342,0.1266287 -0.50336,0.1786809 -0.23995,0.052053 -0.43625,0.1442284 -0.43625,0.2048238 0,0.3032809 -1.88119,0.459634 -2.75174,0.2287082 -0.14764,-0.039167 -0.30208,-0.075836 -0.34317,-0.081486 -0.0411,-0.00561 -0.34916,-0.2669816 -0.6846,-0.5807491 -0.48914,-0.4575293 -0.64395,-0.7166467 -0.78192,-1.3087496 -0.20953,-0.8991132 -0.23398,-0.9453456 -0.455,-0.8605306 -0.38904,0.1492867 -0.0705,1.8001481 0.3473,1.8001481 0.0578,0 0.10528,0.079305 0.10528,0.1762307 0,0.2068067 0.60283,0.7950388 1.05179,1.0263196 0.17243,0.088828 0.27298,0.20191208 0.22341,0.25130498 -0.12224,0.1218302 -0.90643,0.1133572 -1.44174,-0.015573 z m 3.64629,-1.05863178 c 0.37477,-0.086509 0.68078,-0.192216 0.68002,-0.2349025 -7.8e-4,-0.04267 -0.24258,-0.1789299 -0.53737,-0.3027536 -0.29483,-0.1238235 -0.57673,-0.335238 -0.62644,-0.4698067 -0.0497,-0.1345735 -0.12503,-0.274875 -0.16734,-0.3117933 -0.0423,-0.036938 -0.18795,-0.2858898 -0.32368,-0.5532825 -0.17827,-0.3511924 -0.21077,-0.5561587 -0.11706,-0.7382691 0.0713,-0.1386532 0.22672,-0.4786134 0.34528,-0.7554626 0.11855,-0.2768492 0.28815,-0.5033658 0.37687,-0.5033658 0.20436,0 0.7821,0.5363421 0.78431,0.7281075 7.9e-4,0.079416 0.19723,0.270314 0.43625,0.4242171 0.52519,0.3381601 1.58872,0.3411478 1.9596,0.00554 0.13262,-0.1200184 0.28097,-0.2182176 0.32969,-0.2182176 0.17695,0 0.6545,-0.4789328 0.8519,-0.8543661 0.25948,-0.4935132 0.0959,-0.6564925 -0.4902,-0.4883995 -1.00053,0.2869499 -2.20662,-0.1235548 -2.6204,-0.8918782 -0.13327,-0.2474797 -0.29321,-0.4499649 -0.35541,-0.4499649 -0.0623,0 -0.11309,-0.068886 -0.11309,-0.1530864 0,-0.236653 -0.57068,-1.3234519 -0.69495,-1.3234519 -0.0607,0 -0.11245,-0.1057068 -0.1149,-0.2349032 -0.0147,-0.7758114 -1.43169,-1.4806534 -2.89264,-1.4389104 -0.96086,0.02745 -1.07362,0.132895 -0.66348,0.620331 0.40958,0.4867464 0.41435,0.5870804 0.0667,1.3982633 -0.24036,0.5607394 -0.54438,1.0007149 -1.26893,1.836467 -0.11202,0.1291966 -0.20558,0.3104089 -0.20794,0.402692 -0.002,0.092283 -0.0948,0.2875485 -0.20541,0.4339178 -0.11064,0.1463695 -0.28478,0.5477372 -0.387,0.8919289 -0.26146,0.8804784 0.0498,2.1689964 0.65119,2.6956179 0.62519,0.5474684 0.80757,0.4948581 0.67905,-0.1958892 -0.35919,-1.9304555 0.0842,-2.940166 1.35138,-3.0776466 0.33311,-0.036123 0.39196,0.00103 0.35941,0.2252437 -0.1036,0.714445 -0.11323,1.7730468 -0.0184,2.0134592 0.13638,0.3454953 1.31243,1.5706176 1.43815,1.4981504 0.0526,-0.030336 0.21645,-0.00656 0.36411,0.05286 0.36592,0.1472115 0.36056,0.1473585 1.13071,-0.030438 z m -39.43596,-0.6940101 c -0.0823,-0.099076 -0.11126,-0.2183891 -0.0645,-0.2651346 0.13278,-0.1327828 -0.23604,-1.6815599 -0.44093,-1.8516065 -0.10083,-0.083678 -0.18588,-0.220251 -0.189,-0.3034935 -0.006,-0.1574292 -0.85883,-0.7553914 -1.07747,-0.7553914 -0.22973,0 -0.11992,-0.333112 0.18131,-0.5500053 0.16379,-0.1179336 0.61492,-0.2900697 1.00251,-0.3825204 0.3876,-0.092456 0.70472,-0.2150204 0.70472,-0.2723688 0,-0.2385765 3.54125,-0.9821934 4.56383,-0.9583534 3.96752,0.092516 5.11112,0.079508 5.67089,-0.06449 0.40664,-0.104611 0.66652,-0.116554 0.71816,-0.033023 0.0445,0.072001 0.0598,0.1501335 0.0339,0.1736225 -0.15486,0.1407126 -1.145,0.6105906 -1.28664,0.6105906 -0.0934,0 -0.16978,0.059248 -0.16978,0.131672 0,0.07242 -0.16611,0.1711367 -0.36913,0.2193734 -0.20302,0.048251 -0.45974,0.1634711 -0.57048,0.2560791 -0.11074,0.092608 -0.41275,0.2120279 -0.67116,0.2653734 -0.25839,0.053342 -0.5604,0.1725575 -0.67114,0.2649117 -0.11075,0.092359 -0.89599,0.3366983 -1.745,0.5429777 -0.84902,0.2062849 -1.75417,0.4864214 -2.01147,0.622528 -0.25731,0.136101 -0.57632,0.2474645 -0.70893,0.2474645 -0.13261,0 -0.27587,0.090604 -0.31837,0.2013428 -0.0425,0.1107399 -0.161,0.2013492 -0.26334,0.2013492 -0.10236,0 -0.60558,0.4228273 -1.11828,0.9396121 -0.51271,0.5167903 -0.95874,0.9396128 -0.9912,0.9396128 -0.0325,0 -0.12627,-0.081061 -0.20849,-0.1801372 z m 14.93977,-16.6993616 c 0.0436,-0.203022 0.10322,-0.610746 0.13272,-0.906058 0.0903,-0.904657 0.23782,-1.873908 0.30108,-1.97898 0.033,-0.05487 0.0907,-0.356886 0.12813,-0.671155 0.0374,-0.31427 0.12473,-0.628778 0.19398,-0.698916 0.0692,-0.07013 0.12727,-0.221144 0.12892,-0.335577 0.002,-0.114428 0.11203,-0.349818 0.24529,-0.523086 l 0.24232,-0.315036 0.66075,0.403047 c 0.36341,0.221678 0.91747,0.47871 1.23124,0.571186 0.63171,0.186179 0.61767,0.170751 0.45192,0.496593 -0.0652,0.128197 -0.19598,0.398714 -0.29058,0.601154 -0.0946,0.202434 -0.47917,0.698631 -0.8546,1.102647 -0.37543,0.404021 -1.07522,1.159428 -1.5551,1.678684 -0.47987,0.51925 -0.9226,0.944218 -0.98384,0.944366 -0.0612,1.31e-4 -0.0758,-0.165845 -0.0323,-0.368869 z m 20.33795,-3.943016 c -0.32819,-0.15263 -0.89874,-0.414584 -1.26786,-0.582123 -1.91236,-0.867949 -2.47814,-1.181116 -2.93437,-1.624207 l -0.49951,-0.485107 0.601,-0.529007 c 0.33054,-0.290958 0.73056,-0.738675 0.88893,-0.994932 0.15838,-0.256257 0.34201,-0.465925 0.40808,-0.465925 0.33265,0 1.7636,1.688333 1.96249,2.315483 0.041,0.129195 0.12785,0.234902 0.19306,0.234902 0.0652,0 0.11858,0.0616 0.11858,0.136898 0,0.07529 0.15426,0.381252 0.34279,0.679906 0.53923,0.854193 0.88271,1.492448 0.83099,1.544165 -0.026,0.02608 -0.31599,-0.07742 -0.64418,-0.230053 z m -11.31149,-0.06953 c -0.0694,-0.05626 -2.67148,-0.482474 -3.24521,-0.531557 -0.96477,-0.08255 -2.60888,-0.452725 -3.14161,-0.707354 -0.74344,-0.355342 -2.29473,-1.786663 -2.29473,-2.117263 0,-0.09996 -0.0453,-0.182217 -0.10066,-0.182791 -0.0554,-5.06e-4 -0.1804,-0.166687 -0.27783,-0.369137 -0.24523,-0.509566 -2.86884,-13.701826 -2.77903,-13.973754 0.04,-0.121049 0.38927,-0.367672 0.77617,-0.548052 0.38691,-0.18038 0.73369,-0.367544 0.7706,-0.415923 0.12747,-0.167069 1.35243,-0.799767 1.54841,-0.799767 0.10811,0 0.19658,-0.0604 0.19658,-0.134229 0,-0.07383 0.0633,-0.134229 0.14068,-0.134229 0.0774,0 0.4549,-0.196883 0.83894,-0.437525 0.38405,-0.240636 0.87947,-0.527455 1.10094,-0.637382 0.22149,-0.109923 0.4329,-0.230769 0.46981,-0.268544 0.0369,-0.0378 0.41444,-0.241387 0.83894,-0.452466 0.42451,-0.211078 0.77184,-0.436988 0.77184,-0.502011 0,-0.06503 0.11724,-0.118223 0.26053,-0.118223 0.1433,0 0.29846,-0.06136 0.3448,-0.13634 0.0519,-0.08391 0.40334,-0.103571 0.91398,-0.05112 0.45635,0.04687 1.13174,0.102572 1.50087,0.123784 0.36914,0.0212 0.67116,0.0481 0.67116,0.0597 0,0.01162 0.18121,0.04134 0.40269,0.06603 0.22148,0.02471 0.70471,0.08497 1.07384,0.133929 0.75612,0.100289 1.43384,0.176449 2.41615,0.271512 1.95658,0.189351 2.76272,0.304138 2.86682,0.408227 0.1565,0.156445 2.78751,13.636545 2.67512,13.706013 -0.0605,0.03739 -0.0743,0.125701 -0.0306,0.196275 0.0437,0.07058 -0.0179,0.555885 -0.13681,1.078473 -0.35814,1.574676 -1.51978,3.081675 -2.93772,3.811142 -0.284,0.1461 -0.63131,0.325263 -0.77183,0.398141 -0.14052,0.07287 -0.25547,0.17858 -0.25547,0.234903 0,0.05631 -0.0646,0.1024 -0.14362,0.1024 -0.079,0 -0.40697,0.181212 -0.72889,0.402691 -0.3219,0.221479 -0.63852,0.402692 -0.70357,0.402692 -0.065,0 -0.23594,0.105707 -0.3797,0.234903 -0.53139,0.477507 -1.62838,0.956745 -2.13162,0.931227 -0.27292,-0.01385 -0.50687,-0.03379 -0.51989,-0.04433 z m 1.8049,-1.67845 c 0.39699,-0.248926 0.90303,-0.540776 1.12451,-0.648563 0.22147,-0.107781 0.65518,-0.363927 0.9638,-0.569207 0.3086,-0.20528 0.62573,-0.373236 0.7047,-0.373236 0.079,0 0.1436,-0.06041 0.1436,-0.134235 0,-0.07383 0.0949,-0.134229 0.21094,-0.134229 0.32421,0 1.84336,-1.601346 2.18109,-2.299099 0.30185,-0.623634 0.42021,-1.199767 0.45149,-2.197631 0.01,-0.295304 -0.51488,-3.179669 -1.16475,-6.409691 l -1.18159,-5.872768 -0.50847,-0.136911 c -0.27965,-0.07531 -0.55763,-0.128477 -0.6177,-0.118158 -0.06,0.01035 -0.13948,0.0078 -0.17639,-0.0056 -0.0664,-0.0242 -0.23803,-0.04551 -1.54365,-0.191318 -0.36913,-0.04125 -0.94296,-0.106357 -1.27519,-0.144715 -0.33223,-0.03836 -0.93626,-0.103496 -1.34231,-0.144736 -0.40605,-0.04125 -0.91948,-0.09739 -1.14096,-0.124762 -1.8319,-0.226405 -1.97931,-0.220795 -2.47171,0.09408 -0.26474,0.169301 -0.66257,0.397192 -0.88405,0.50643 -0.22148,0.109238 -0.4329,0.228912 -0.46981,0.265942 -0.0369,0.03704 -0.42954,0.248216 -0.8725,0.469299 -0.44296,0.221089 -0.83558,0.432503 -0.8725,0.469812 -0.0369,0.03728 -0.45973,0.27172 -0.93961,0.520919 -0.47987,0.249199 -0.96786,0.536119 -1.08441,0.637595 -0.11655,0.101481 -0.29776,0.185855 -0.40269,0.187494 -0.10493,0.0015 -0.34179,0.121103 -0.52636,0.265474 -0.18456,0.144371 -0.40752,0.263836 -0.49544,0.26548 -0.0879,0.0015 -0.19447,0.05899 -0.23678,0.127436 -0.11136,0.180183 2.30509,12.205476 2.56178,12.748521 0.5976,1.264272 1.99355,2.56355 2.75428,2.56355 0.11205,0 0.24558,0.04185 0.29674,0.09302 0.0512,0.05116 0.34816,0.111237 0.65997,0.133504 0.68509,0.04891 0.92707,0.09169 1.10386,0.195133 0.0738,0.04317 0.36074,0.08177 0.6376,0.08572 0.27685,0.004 0.51847,0.01711 0.53692,0.02928 0.0373,0.0245 0.37741,0.07333 1.3699,0.196579 0.36585,0.04546 0.69807,0.116082 0.73827,0.157004 0.17349,0.176616 1.10145,-0.08973 1.76742,-0.507293 z m -1.78267,-0.04622 c -0.0327,-0.03268 -0.37497,-0.09084 -0.76064,-0.129227 -0.38567,-0.03841 -0.84783,-0.106595 -1.02703,-0.151575 -0.36358,-0.09125 -0.72136,-0.139622 -1.84344,-0.249215 -1.77653,-0.173521 -3.21963,-1.07863 -3.86513,-2.424212 -0.27104,-0.565007 -2.60781,-12.071654 -2.5056,-12.338017 0.0327,-0.08501 0.35314,-0.303519 0.71225,-0.485574 0.35912,-0.18206 0.67307,-0.376316 0.69768,-0.431685 0.0246,-0.05537 0.14843,-0.100675 0.27517,-0.100675 0.12674,0 0.28782,-0.05294 0.35795,-0.117655 0.0701,-0.0647 0.39933,-0.267579 0.73155,-0.450827 0.90982,-0.501833 1.63233,-0.917649 2.08058,-1.197411 0.22147,-0.138232 0.5084,-0.287725 0.63759,-0.332214 0.1292,-0.0445 0.23491,-0.119506 0.23491,-0.166702 0,-0.04719 0.1963,-0.174324 0.43625,-0.282516 0.60426,-0.272471 1.81164,-0.235385 4.26183,0.130916 1.20327,0.179893 1.96129,0.264876 2.95306,0.331072 0.40605,0.02709 0.76847,0.06132 0.80538,0.07603 0.037,0.01471 0.16388,0.01751 0.28214,0.0062 0.17848,-0.01705 0.41666,0.989715 1.40156,5.92425 0.65261,3.269625 1.18555,6.035375 1.18433,6.146115 -0.008,0.686826 -0.21142,1.560298 -0.46391,1.987554 -0.29445,0.498273 -1.70467,1.904704 -1.91011,1.904988 -0.0605,8.2e-5 -0.37344,0.181365 -0.69535,0.402844 -0.32191,0.22148 -0.64488,0.402692 -0.71771,0.402692 -0.0728,0 -0.15256,0.0453 -0.17716,0.100675 -0.0246,0.05537 -0.33167,0.246074 -0.68234,0.423791 -0.35067,0.177718 -0.6376,0.374033 -0.6376,0.436251 0,0.06222 -0.0708,0.11313 -0.15722,0.11313 -0.0865,0 -0.25918,0.09228 -0.38382,0.205073 -0.21758,0.196909 -1.10217,0.388882 -1.22517,0.265885 z m -0.23512,-4.902528 c -0.0816,-0.380399 -0.11359,-0.747862 -0.0711,-0.81658 0.0424,-0.06872 0.006,-0.471399 -0.0827,-0.894841 -0.088,-0.423441 -0.16005,-0.905805 -0.16014,-1.071913 -1.3e-4,-0.304291 -0.1685,-0.370639 -0.55963,-0.220541 -0.2638,0.101223 -0.27342,0.50397 -0.0216,0.896419 0.10498,0.163512 0.23411,0.599311 0.28694,0.968449 0.0528,0.369132 0.17836,0.790301 0.27893,0.935929 0.10057,0.145619 0.18286,0.392271 0.18286,0.548107 0,0.28696 0.13085,0.510434 0.23682,0.404458 0.0318,-0.03181 -0.009,-0.369086 -0.0905,-0.749487 z m -3.77058,-0.235408 c 0,-0.09966 0.76597,-1.087246 1.37755,-1.776101 0.3095,-0.348595 0.77013,-1.032981 0.77013,-1.144203 0,-0.03511 -0.0855,-0.06387 -0.19015,-0.06387 -0.1046,0 -0.21386,-0.0711 -0.24283,-0.157993 -0.0858,-0.257499 -0.37475,0.01101 -0.65535,0.609033 -0.28296,0.603067 -0.54681,1.083653 -1.02206,1.86156 -0.33089,0.541639 -0.3825,0.77471 -0.17152,0.77471 0.0738,0 0.13423,-0.04642 0.13423,-0.103133 z m 6.86222,-1.742541 c -0.64397,-0.601052 -1.1268,-0.992988 -1.65071,-1.339965 -0.27131,-0.179686 -0.52613,-0.412281 -0.56627,-0.516877 -0.10489,-0.273348 -0.45111,-0.234158 -0.61361,0.06946 -0.19607,0.366383 -0.17375,0.503397 0.096,0.588933 0.12919,0.04099 0.41612,0.177961 0.63759,0.304422 0.22149,0.126462 0.5235,0.293231 0.67116,0.370598 0.14765,0.07737 0.57048,0.303322 0.93961,0.502118 0.86978,0.468412 0.96999,0.472805 0.48627,0.02131 z m -7.65608,-1.704319 c 0.0734,0.04536 0.55383,0.0074 1.06768,-0.0845 0.90741,-0.162167 0.93425,-0.178341 0.93425,-0.563093 0,-0.377792 -0.0211,-0.39217 -0.45629,-0.310531 -0.25096,0.04708 -0.62849,0.168945 -0.83895,0.270817 -0.21045,0.101866 -0.69672,0.226329 -1.08061,0.27658 -0.38386,0.05022 -0.76878,0.176718 -0.85537,0.281044 -0.0866,0.104322 -0.24063,0.189676 -0.34233,0.189676 -0.10169,0 -0.18491,0.05232 -0.18491,0.116264 0,0.06395 0.3652,0.03191 0.81156,-0.07123 0.44635,-0.103115 0.87159,-0.150377 0.94497,-0.105027 z m 3.96639,0.06182 c 0.23161,-0.0025 0.64096,-0.700437 0.61311,-1.044898 -0.0135,-0.167642 -0.12714,-0.461218 -0.2524,-0.6524 -0.20623,-0.314756 -0.28561,-0.339904 -0.84021,-0.266174 -0.77072,0.102454 -1.10513,0.461375 -0.99152,1.064182 0.0984,0.522436 0.67765,1.054934 1.05021,0.965537 0.14766,-0.03541 0.33702,-0.06524 0.42081,-0.06625 z m 3.33879,-1.535799 c 0.22086,-0.115159 0.53252,-0.20975 0.69259,-0.210207 0.34719,-0.0011 0.71569,-0.129754 0.7157,-0.250092 2e-5,-0.130688 -1.36871,-0.06159 -1.94792,0.09834 -0.28059,0.07747 -0.56505,0.106935 -0.63213,0.06548 -0.0671,-0.04145 -0.32949,-0.03648 -0.58308,0.01111 -0.36576,0.06862 -0.46111,0.150012 -0.46111,0.393627 0,0.16892 0.0324,0.339549 0.072,0.379182 0.1093,0.109293 1.6877,-0.24958 2.14388,-0.487437 z m -5.05937,-0.35578 c 0.19586,-0.313625 0.0172,-0.660637 -0.34027,-0.660637 -0.10876,0 -0.38635,-0.1343 -0.61687,-0.298446 -0.23052,-0.164142 -0.49438,-0.309485 -0.58636,-0.322986 -0.0919,-0.0135 -0.33551,-0.141469 -0.54121,-0.284378 -0.51333,-0.356651 -1.24647,-0.704471 -1.24647,-0.591347 0,0.05116 0.31119,0.333452 0.69155,0.627307 0.38036,0.293849 0.80181,0.638604 0.93656,0.766121 0.32821,0.310582 1.34449,1.043341 1.44705,1.043341 0.045,0 0.16019,-0.125539 0.25602,-0.278975 z m 3.07526,-1.173547 c 0.21514,-0.41925 0.58248,-1.109602 0.81629,-1.534104 0.27065,-0.491353 0.36309,-0.771829 0.25437,-0.771829 -0.094,0 -0.26948,0.167108 -0.39013,0.371354 -0.12065,0.204245 -0.41117,0.581768 -0.6456,0.838943 -0.44807,0.49153 -0.75124,0.847224 -1.05857,1.241931 -0.15917,0.204432 -0.15255,0.273114 0.0477,0.494309 0.32826,0.362735 0.52862,0.231225 0.976,-0.640604 z m -1.90435,0.51087 c 0.34383,-0.130728 0.34978,-0.149448 0.14606,-0.460355 -0.11679,-0.178249 -0.25108,-0.585055 -0.29842,-0.904018 -0.0473,-0.318962 -0.16189,-0.702056 -0.25457,-0.851322 -0.0927,-0.149266 -0.21317,-0.541893 -0.26773,-0.872499 -0.16604,-1.006143 -0.34065,-1.088822 -0.27727,-0.131301 0.0883,1.334618 0.21802,2.718168 0.28624,3.053745 0.069,0.339277 0.15376,0.360386 0.66569,0.16575 z m -13.76609,-5.571033 c -0.18483,-0.222707 -0.15122,-0.276631 0.83496,-1.339788 0.27393,-0.295305 0.68044,-0.754747 0.90339,-1.020983 l 0.40533,-0.484052 -0.95539,-0.858252 c -0.52545,-0.472034 -1.23384,-1.117918 -1.57416,-1.435288 -0.51175,-0.477248 -0.68498,-0.564408 -1.00161,-0.503979 -0.42767,0.08162 -1.16081,-0.343503 -1.16081,-0.673119 0,-0.105712 -0.067,-0.192207 -0.14878,-0.192207 -0.096,0 -0.11486,-0.13095 -0.0532,-0.369132 0.0526,-0.203022 0.10674,-0.436149 0.12033,-0.518053 0.0573,-0.344724 0.51082,-0.610879 1.07858,-0.632851 0.75318,-0.02912 1.33605,0.43991 1.25267,1.008051 -0.0446,0.304138 0.093,0.495472 0.86915,1.208492 0.5072,0.46593 1.20045,1.103865 1.54055,1.417627 0.34011,0.313762 0.68646,0.570481 0.76969,0.570481 0.0832,0 0.51156,-0.404315 0.95182,-0.898474 1.52774,-1.714729 1.35396,-1.581697 1.73772,-1.33025 0.18588,0.121799 0.33797,0.246384 0.33797,0.276854 0,0.04896 -0.37719,0.482038 -1.45503,1.670719 l -0.31408,0.346373 0.95208,0.873442 c 0.52366,0.480399 0.95191,0.944529 0.95168,1.031403 -2.7e-4,0.08687 -0.18953,0.252305 -0.42069,0.367615 -0.40529,0.202186 -0.43569,0.196559 -0.85362,-0.157957 -0.23835,-0.202185 -0.62929,-0.533723 -0.86874,-0.736747 -0.45715,-0.387608 -0.81044,-0.478988 -0.81044,-0.209623 0,0.166672 1.20062,1.315437 1.37586,1.316447 0.0554,2.69e-4 0.10067,0.09427 0.10067,0.208775 0,0.307426 -0.87555,0.640919 -1.21114,0.461319 -0.14597,-0.07812 -0.26539,-0.190112 -0.26539,-0.248865 0,-0.05875 -0.15101,-0.18764 -0.33558,-0.286417 -0.18456,-0.09878 -0.33558,-0.272359 -0.33558,-0.385737 0,-0.113373 -0.4191,0.229053 -0.93132,0.760951 -0.95738,0.99414 -1.19434,1.115768 -1.48691,0.763225 z m 19.89496,-3.821232 c -0.56219,-0.133148 -0.61243,-0.188285 -0.44835,-0.492113 0.53561,-0.991822 0.72113,-1.555245 0.54743,-1.662597 -0.12484,-0.07715 -0.27491,0.02806 -0.48859,0.342493 -0.16961,0.249616 -0.30838,0.497156 -0.30838,0.550096 0,0.05293 -0.10044,0.323899 -0.2232,0.602138 -0.19878,0.450527 -0.27193,0.502773 -0.66839,0.477411 -0.56935,-0.03642 -0.78551,-0.240733 -0.60868,-0.57525 0.47714,-0.902557 1.00547,-2.062767 0.95553,-2.098355 -0.14005,-0.09981 -1.56767,-0.770819 -1.90498,-0.895379 -0.40713,-0.150337 -0.46238,-0.366803 -0.18904,-0.740608 0.17119,-0.234126 0.23906,-0.21844 1.37586,0.317947 0.65767,0.310323 1.30066,0.621016 1.42886,0.69043 0.39845,0.215735 0.56445,0.136628 0.79869,-0.380629 0.1245,-0.274947 0.48647,-1.043534 0.8044,-1.707976 0.48808,-1.020096 0.57819,-1.337384 0.579,-2.039091 7.9e-4,-0.938394 0.23375,-1.280916 0.98159,-1.44517 1.12657,-0.247434 1.86649,1.223372 1.01325,2.014134 -0.19535,0.181041 -0.45207,0.330266 -0.57048,0.331611 -0.13752,0.0015 -0.40104,0.401631 -0.72943,1.107401 -0.28278,0.607728 -0.69051,1.453165 -0.90607,1.878747 -0.21555,0.425584 -0.39192,0.82343 -0.39192,0.884107 0,0.06068 0.33222,0.271208 0.73827,0.467848 0.40605,0.19664 1.06718,0.516734 1.46916,0.71132 0.77575,0.375509 0.98061,0.63829 0.73152,0.93841 -0.21998,0.265059 -0.33711,0.238318 -1.52724,-0.348687 l -1.07157,-0.528516 -0.21992,0.430098 c -0.47437,0.927751 -0.67779,1.302018 -0.70052,1.288852 -0.013,-0.0076 -0.22311,-0.06096 -0.4668,-0.118669 z m -44.79266,59.199327 c 2.23609,-0.363779 3.43327,-0.548436 4.01023,-0.61856 1.61705,-0.196534 1.6699,-0.506055 2.56535,-15.0247457 0.79371,-12.8691843 1.00812,-16.8393793 1.00829,-18.6708083 2.7e-4,-2.488699 0.10475,-2.423543 -2.72471,-1.698875 -3.00953,0.770788 -4.05166,0.88376 -7.40123,0.802329 -3.75431,-0.09127 -4.94176,-0.419443 -7.53666,-2.082877 -2.20971,-1.416512 -2.2749,-1.368806 -2.38807,1.747605 -0.31801,8.75607 -0.79604,25.4596067 -0.80778,28.2249214 l -0.0143,3.355769 0.35475,0.6711486 c 0.38081,0.720422 1.68159,2.047644 2.33376,2.381201 0.21934,0.11218 0.6102,0.245695 0.8686,0.296697 0.25839,0.05101 0.76967,0.188243 1.13619,0.304975 0.36651,0.116736 1.15175,0.25481 1.745,0.306837 1.51232,0.132631 6.04442,0.135533 6.85053,0.0046 z m -0.13422,-38.861648 c 0.66444,-0.108192 2.35575,-0.562905 3.75846,-1.010475 1.40271,-0.447575 2.83335,-0.8764 3.17921,-0.952955 0.34585,-0.07655 0.69006,-0.212962 0.7649,-0.303134 0.3386,-0.407999 1.4047,-14.720465 1.58365,-21.260908 l 0.0854,-3.120865 h -0.37733 c -0.20753,0 -1.10808,0.178311 -2.0012,0.396244 -2.66281,0.649765 -4.43698,0.863706 -7.19442,0.867551 -3.42911,0.0046 -4.27718,-0.261395 -8.52215,-2.674807 -1.76009,-1.000675 -2.31185,-1.173892 -2.60687,-0.818402 -0.2258,0.27207 -0.3949,5.65349 -0.50179,15.969483 l -0.0917,8.840657 1.12838,1.069357 c 2.00268,1.89792 2.85016,2.333162 5.32211,2.733302 0.68105,0.110238 1.37569,0.255628 1.54366,0.323083 0.47483,0.190689 2.59404,0.159342 3.92962,-0.05813 z m 1.20808,-28.987288 c 0.66443,-0.278706 2.2451,-0.890163 3.51259,-1.358798 1.26748,-0.468634 3.26457,-1.24435 4.43796,-1.723811 1.1734,-0.479465 2.78364,-1.089289 3.57831,-1.355169 0.79468,-0.265876 2.27082,-0.837321 3.2803,-1.269874 1.00948,-0.432553 2.65089,-1.069073 3.64755,-1.414487 0.99666,-0.345415 2.80876,-1.042651 4.02691,-1.549416 1.21814,-0.506765 3.5437,-1.416035 5.16788,-2.020597 1.62419,-0.604563 4.70478,-1.790268 6.84575,-2.634899 2.14099,-0.844626 4.91956,-1.917274 6.17462,-2.383657 1.25506,-0.466382 3.18797,-1.207614 4.29538,-1.647183 1.1074,-0.439569 2.72679,-1.058012 3.59864,-1.374316 1.69225,-0.613944 1.97193,-0.792169 1.97193,-1.256668 0,-0.393561 -0.59766,-1.255343 -0.94763,-1.366423 -0.40306,-0.127923 -0.65793,-0.04388 -3.87055,1.27617 -1.59504,0.6554 -3.86654,1.551794 -5.04777,1.991988 -1.18123,0.440189 -4.14102,1.58635 -6.5773,2.547021 -2.43628,0.960667 -5.64609,2.204814 -7.13289,2.764757 -1.48681,0.559949 -3.35931,1.29434 -4.16115,1.631977 -0.80182,0.337636 -2.45453,0.979747 -3.67268,1.426922 -1.21814,0.447174 -4.45289,1.704014 -7.18833,2.792978 -2.73546,1.088961 -5.5375,2.172015 -6.22679,2.406777 -0.68928,0.23476 -2.04522,0.760282 -3.01318,1.167818 -0.96796,0.407542 -2.8472,1.134133 -4.17609,1.614639 -2.85663,1.032931 -3.08345,1.153801 -2.87966,1.534587 0.0798,0.149083 0.33752,0.392327 0.57275,0.540538 0.35904,0.226228 0.60003,0.261163 1.50152,0.217669 0.86499,-0.04176 1.30882,-0.150367 2.28193,-0.558543 z m 12.34024,-0.951885 c 1.46378,-0.255262 2.34246,-0.547367 4.63993,-1.542476 0.99666,-0.43169 2.23493,-0.882167 2.75173,-1.00107 1.92569,-0.44305 5.93328,-1.700433 8.61009,-2.701402 1.0442,-0.390475 2.5543,-0.900726 3.35577,-1.133889 0.80145,-0.233163 2.25902,-0.720513 3.23902,-1.082998 0.98,-0.362487 2.80192,-0.962469 4.04871,-1.333295 1.24678,-0.370821 3.02227,-0.970834 3.94554,-1.333356 0.92328,-0.36252 2.57458,-0.938371 3.66956,-1.279671 1.09499,-0.341295 2.62513,-0.821928 3.4003,-1.068074 2.21842,-0.704404 7.2902,-2.465879 7.55897,-2.625282 0.3353,-0.198863 0.23712,-0.695973 -0.17628,-0.892649 -0.45528,-0.216598 -3.14915,-0.581135 -4.29453,-0.581135 -0.73395,0 -1.20603,0.101568 -2.24374,0.482749 -0.72282,0.265516 -2.37128,0.863848 -3.66325,1.329626 -1.29197,0.465784 -3.58732,1.310485 -5.10077,1.877115 -1.51345,0.56663 -3.32556,1.243746 -4.02692,1.5047 -2.71163,1.008922 -6.33287,2.370732 -8.38941,3.154941 -1.18123,0.450432 -3.23496,1.204544 -4.56384,1.675811 -1.32888,0.471273 -3.44302,1.255796 -4.69807,1.743383 -1.25506,0.487594 -3.03696,1.142429 -3.95981,1.455191 -2.08933,0.708109 -7.90471,2.973162 -8.14466,3.172299 -0.24249,0.201251 -0.22289,0.349752 0.0573,0.433816 0.38401,0.115229 2.72035,-0.03388 3.98439,-0.254334 z m -18.58197,-1.948161 c 1.29197,-0.530934 3.01348,-1.192851 3.82558,-1.470918 0.81209,-0.278071 2.76027,-0.997519 4.32928,-1.598769 1.56902,-0.601254 3.23011,-1.189461 3.69134,-1.307125 0.46123,-0.117665 1.07348,-0.33329 1.36056,-0.479162 0.80783,-0.410474 4.72994,-1.92456 5.85399,-2.259864 0.5537,-0.165165 2.33561,-0.827122 3.95981,-1.471008 1.62419,-0.643889 3.13428,-1.214009 3.35576,-1.266934 0.22148,-0.05293 1.73157,-0.610986 3.35576,-1.240123 1.62419,-0.629138 3.64772,-1.384301 4.49673,-1.678136 0.84901,-0.293839 2.75173,-1.005088 4.22826,-1.580551 1.47653,-0.575462 3.28865,-1.232539 4.02692,-1.460167 0.73827,-0.227633 2.33896,-0.828781 3.55711,-1.335887 1.21814,-0.507109 2.91905,-1.148022 3.7798,-1.424263 1.54858,-0.496979 2.85304,-1.156125 3.10797,-1.570465 0.18701,-0.30393 0.006,-0.893639 -0.30532,-0.992309 -0.34418,-0.109237 -1.0939,0.115651 -8.26034,2.47771 -3.3222,1.094998 -8.69814,2.848421 -11.94652,3.896485 -5.89333,1.901441 -10.53586,3.417668 -18.65804,6.093609 -2.36246,0.778338 -4.62761,1.484499 -5.03365,1.569248 -0.40606,0.08474 -1.1611,0.326531 -1.67789,0.537302 -1.97552,0.805692 -6.20099,2.263769 -6.77865,2.339093 -0.33221,0.04333 -1.14767,0.285574 -1.81211,0.538345 -0.66444,0.252771 -1.55087,0.554687 -1.96985,0.670922 -1.37337,0.381008 -2.19667,1.162025 -2.17309,2.061489 0.0179,0.685708 0.36141,1.164946 1.17814,1.643982 1.00706,0.590681 1.61211,0.497744 4.50845,-0.692504 z"
       id="path3901" />
  </g>
</svg>
